/* XPM */
static char *dbfccf8450834ff4828739ede1ed81cchOEDPAP55NiYloFr[] = {
/* columns rows colors chars-per-pixel */
"32 32 220 2 ",
"   c #040404",
".  c #0A0404",
"X  c #0E0708",
"o  c #0C0B0B",
"O  c #150504",
"+  c #1C0505",
"@  c #160807",
"#  c #150C0C",
"$  c #1C0C0B",
"%  c #11100F",
"&  c #130F10",
"*  c #141313",
"=  c #1C1414",
"-  c #1B1A1A",
";  c #260404",
":  c #2D0404",
">  c #230B0B",
",  c #2B0B0A",
"<  c #350404",
"1  c #3B0403",
"2  c #380B0B",
"3  c #3C0B0B",
"4  c #3B100F",
"5  c #231312",
"6  c #2A1313",
"7  c #241C1C",
"8  c #2A1B1B",
"9  c #351515",
"0  c #381919",
"q  c #29211B",
"w  c #3A261D",
"e  c #3E331B",
"r  c #232323",
"t  c #282525",
"y  c #292828",
"u  c #342424",
"i  c #3A2926",
"p  c #3E3421",
"a  c #440405",
"s  c #4B0303",
"d  c #4B0C04",
"f  c #440D0D",
"g  c #4D0C0C",
"h  c #530303",
"j  c #5B0403",
"k  c #580908",
"l  c #5B0B0B",
"z  c #511104",
"x  c #411212",
"c  c #4D1212",
"v  c #4A1C1B",
"b  c #5F1312",
"n  c #620303",
"m  c #6C0404",
"M  c #640906",
"N  c #630C0A",
"B  c #690A08",
"V  c #740403",
"C  c #7A0A07",
"Z  c #69120A",
"A  c #731104",
"S  c #7A1507",
"D  c #7C1B03",
"F  c #6B1A17",
"G  c #592E03",
"H  c #402812",
"J  c #542718",
"K  c #533C12",
"L  c #632F09",
"P  c #7F300E",
"I  c #7D2817",
"U  c #4D2828",
"Y  c #603E23",
"T  c #785309",
"R  c #684E1E",
"E  c #735518",
"W  c #544228",
"Q  c #7F5D23",
"!  c #7D6422",
"~  c #830403",
"^  c #810A06",
"/  c #8A0A05",
"(  c #970504",
")  c #861507",
"_  c #921D04",
"`  c #9B1C03",
"'  c #881311",
"]  c #901610",
"[  c #A50803",
"{  c #B00F04",
"}  c #A61605",
"|  c #BC1902",
" . c #A41B13",
".. c #872704",
"X. c #8E2B02",
"o. c #942705",
"O. c #883207",
"+. c #9A3905",
"@. c #822212",
"#. c #932717",
"$. c #833C12",
"%. c #A92502",
"&. c #A12B02",
"*. c #B42403",
"=. c #B12E03",
"-. c #AA3204",
";. c #A53906",
":. c #B53803",
">. c #D50B02",
",. c #CC3D03",
"<. c #E12F02",
"1. c #984205",
"2. c #895716",
"3. c #AB4D04",
"4. c #B34403",
"5. c #BA4607",
"6. c #AC5304",
"7. c #B35503",
"8. c #BB5504",
"9. c #AE5518",
"0. c #80611F",
"q. c #926B1F",
"w. c #957A18",
"e. c #AD6C02",
"r. c #B66604",
"t. c #AB7716",
"y. c #B97C12",
"u. c #BA791E",
"i. c #896A25",
"p. c #936826",
"a. c #967528",
"s. c #A66C23",
"d. c #A37C27",
"f. c #C84905",
"g. c #CF5105",
"h. c #C35B04",
"j. c #C96405",
"k. c #C46E02",
"l. c #D26703",
"z. c #D86902",
"x. c #CE750D",
"c. c #D87B03",
"v. c #EB6E03",
"b. c #A28600",
"n. c #B89A0E",
"m. c #BE8214",
"M. c #BE871B",
"N. c #B7991B",
"B. c #B88525",
"V. c #CF8004",
"C. c #CB930F",
"Z. c #C89F0E",
"A. c #DC9806",
"S. c #C18415",
"D. c #C48814",
"F. c #C98B17",
"G. c #C59218",
"H. c #D5961E",
"J. c #D49A1A",
"K. c #D9991C",
"L. c #E98C03",
"P. c #F08403",
"I. c #E39202",
"U. c #E79B03",
"Y. c #D8A70D",
"T. c #C7A518",
"R. c #DDA71C",
"E. c #E9A708",
"W. c #F1A902",
"Q. c #E3B509",
"!. c #E2BE0D",
"~. c #EDBE0B",
"^. c #F7B407",
"/. c #F3B50D",
"(. c #E3A516",
"). c #E7A914",
"_. c #EBAD14",
"`. c #E1A41A",
"'. c #E6A91F",
"]. c #E6B713",
"[. c #EBBB11",
"{. c #E2BF1F",
"}. c #F1B311",
"|. c #C58D26",
" X c #C89127",
".X c #D49825",
"XX c #D9A72A",
"oX c #DAA130",
"OX c #E5A720",
"+X c #E8AB29",
"@X c #E9B828",
"#X c #F1B528",
"$X c #F5BB2B",
"%X c #F9BF2D",
"&X c #F1B937",
"*X c #F1C901",
"=X c #F5C806",
"-X c #FDD402",
";X c #FED30C",
":X c #EEC816",
">X c #FDCF15",
",X c #F3C918",
"<X c #FCCC1B",
"1X c #FCD314",
"2X c #FDD41E",
"3X c #FBC526",
"4X c #FBC821",
"5X c #FAC22A",
"6X c #FCD423",
"7X c #FAC73D",
"8X c #B38741",
"9X c #D4AD47",
"0X c #EAB64B",
"qX c #FAC746",
"wX c #FEDA49",
"eX c #FACC53",
"rX c #FDDE63",
"tX c #FBD668",
"yX c #FDDE74",
"uX c #FDE47E",
/* pixels */
"( O . @ 5 $ O 4.d 1 C : 1 S %.| # - - - 0 } Z f + @ + +.: & < c ",
"_ z O a N k ( h.c * * % o .   j + * & o c U.W.| j ` h.+.' :.;.= ",
"Z 5.n &.A.v. .u r - - * % o   j a * o . ~ :.#.c = # V 9 f 8.7.# ",
"~ 4 3 ;.-X9.U y * % % * * o . ( } a < ~ b i i 7 - & 2 3.o.8 l M ",
"k - 7 f -.v r * * o o o   . n 4.x.U.~.6X1X:XN.p - * X ..f r = -.",
"s # * ; C $ - = - #   + 1 a q.{.;X~.Y.C.G.Y.-X@X! o X + m 4 1 j.",
"r.:.h / z.1 o * - $ ) [ G T.-XQ.D.y.y.y.y.y.Y.-X$Xa.  + :.V.[ b ",
"8.I $ # n V < k ^ ,.I.q.:X=XC.y.y.y.y.y.y.y.m.-X7X&Xi.@ ..V.c y ",
"u y - * = 1 j l.#.g u.-XQ.y.m.m.y.y.D.S.D.u.m.-XyXqX@Xq h ( 7 - ",
"y r - - * , 9 w B |.>XY.y.y./._.K.K.K..XB.b. X-XuXyX5Xa.A C * * ",
"- r - * o a l - a.2XY.y.C.^./._.K.S.9.] 1 X n.7XuXuXeXXXk.O.o * ",
"- - * o   D 1.! -XY.y.F./.}.K.H.p.h U 8 m ` :XrXuXuXtX&XZ ^ < * ",
"- * o o . :.v.:XQ.S.(./.).K. XK   s 6 * s _.2XuXuXuXyX%X- 3 c.O.",
"- o o X 1 m T.*XA.K.}.}.K.M.e   O [ > X L :XrXuXuXuXuX&X= V 3...",
"  o o ; j ! -XJ./.}._.K.|.H + . h  .r.o.Z.;XqXtXwXyXuX+X8.=.; * ",
"D 1 n *.M @X:XJ././.`.H.$.) M j l.} l.w.-X3X%X5X6XrXyX|.W.O.$ - ",
") { ^.I.! -XR.(./.K.K.p.~ P.f./ f.v 2.>X4X4X5X<X4XtXtXK { 3 - t ",
"- a l.;.G.=XK././.K.m.. < X.#.u 5 T *X<X5X4X<X>X5XtX9X$ 1 * - - ",
"* = ( 3 :X].K.}.).(.Q   . : F - E *X<X%X4X>X4X5X5XtXK ..M * * * ",
". # j O <XR._./._..X      ; 2 w.;X<X%X%X4X1X<X5XqX8X/ 8.M # * - ",
"n V [ O 6X`.`.).K.B.    . G Z.-X4X$X5X<X4X4X5X5X0XE.F 0 =.1 @ o ",
", V | O !.[.K.K.K.t.  . b.,X>X5X5X4X<X<X>X4X5X9XJ ,.0 f f.S n o.",
"o . e.r.M.-X].K.K.XXZ.:X-X4X%X%X3X;X1X%X<X5XXXe = k -.o.u r = 6.",
".   8.O.F R.-X-X-X-X>X3X%X%X%X<X<X3X5X%X5XXXe - * # 7.O.r r * < ",
"  < C y - R `.OX#X%X5X5X%X%X%X>X>X%X5X%X Xy - - *   ~ g - * & $ ",
"O m $ r * o T OXOXOX+X#X$X4X>X5X$X$X+Xs.* o * r - $ 8.j * - & j ",
"k.A = - & X s E .XOXOX+XOXOX'.`.+XB.Y B < @ # # = C x.D j g M <.",
"I.+ * & o   n > * i.|..X+XoX.Xd.W y t 7 a ` ..M < 4 q 7 B l.c.Z ",
"/ C l 4 = , +.@ o & @ h >.g.h.9 - - r * # S A.N = - r * # o.@.8 ",
"; %.E.:.h B I *.O.Z 1 3 , +.j.3 - r - - o ; / , * - - o X n 8 t ",
"O n L.S > X . ;.^.=.6 r r 9 m : * - - - * X o.d o - - o @ m 5 r ",
"X h ' u - *   j %.@ # - - - > 1 o * * * o O e.A.A , @ + 1.o.# * "
};
