/* XPM */
static char *e7491ce855514893aae83eca609fee4dJcPt9dsxgF8Q2Cni[] = {
/* columns rows colors chars-per-pixel */
"32 32 198 2 ",
"   c #050505",
".  c #0A0404",
"X  c #0E0708",
"o  c #0C0B0B",
"O  c #140504",
"+  c #1C0605",
"@  c #160807",
"#  c #140C0C",
"$  c #1C0C0C",
"%  c #11100F",
"&  c #1C100F",
"*  c #130F10",
"=  c #141313",
"-  c #1B1413",
";  c #1E1817",
":  c #1B1B1B",
">  c #240404",
",  c #2D0404",
"<  c #240B0B",
"1  c #2C0B0B",
"2  c #350404",
"3  c #3B0404",
"4  c #3A0807",
"5  c #3D0708",
"6  c #340E0E",
"7  c #3C0C0B",
"8  c #240F10",
"9  c #221313",
"0  c #2A1313",
"q  c #241D1D",
"w  c #2A1B1B",
"e  c #341515",
"r  c #391110",
"t  c #331817",
"y  c #351819",
"u  c #3C1918",
"i  c #2A201F",
"p  c #3A201F",
"a  c #232323",
"s  c #292626",
"d  c #2A2929",
"f  c #342424",
"g  c #382020",
"h  c #3E2828",
"j  c #440404",
"k  c #4B0404",
"l  c #4B0C04",
"z  c #440C0C",
"x  c #4C0B0B",
"c  c #530303",
"v  c #5C0404",
"b  c #550807",
"n  c #5C0905",
"m  c #560A0B",
"M  c #5B0B0B",
"N  c #43100F",
"B  c #511104",
"V  c #58100C",
"C  c #431212",
"Z  c #4D1212",
"A  c #441718",
"S  c #4A1C1B",
"D  c #541110",
"F  c #5D1211",
"G  c #630302",
"H  c #6C0403",
"J  c #640906",
"K  c #6A0A04",
"L  c #630C0A",
"P  c #6B0B09",
"I  c #740403",
"U  c #7C0404",
"Y  c #750C07",
"T  c #7E0C09",
"R  c #6B1206",
"E  c #66130F",
"W  c #6A120D",
"Q  c #731104",
"!  c #7B1405",
"~  c #741904",
"^  c #7D1C03",
"/  c #77180C",
"(  c #671616",
")  c #691E1C",
"_  c #7D2817",
"`  c #4B2221",
"'  c #4D2F2F",
"]  c #830403",
"[  c #8A0503",
"{  c #820C05",
"}  c #890D07",
"|  c #920303",
" . c #9F0202",
".. c #930C05",
"X. c #9B0B04",
"o. c #831605",
"O. c #961003",
"+. c #9F1207",
"@. c #921D04",
"#. c #9B1C03",
"$. c #881413",
"%. c #901610",
"&. c #AB0802",
"*. c #A90804",
"=. c #B00F04",
"-. c #AA1403",
";. c #A21F02",
":. c #AD1803",
">. c #A31309",
",. c #BC1902",
"<. c #A41B13",
"1. c #862305",
"2. c #842903",
"3. c #8D2C02",
"4. c #8B2905",
"5. c #952303",
"6. c #942D05",
"7. c #932008",
"8. c #853003",
"9. c #8B3305",
"0. c #8F3804",
"q. c #87310B",
"w. c #943507",
"e. c #9F3603",
"r. c #9C3D04",
"t. c #842614",
"y. c #932717",
"u. c #A42505",
"i. c #AB2303",
"p. c #A12B02",
"a. c #AE2E06",
"s. c #B42403",
"d. c #B12E03",
"f. c #AA3204",
"g. c #A13802",
"h. c #AE3D04",
"j. c #A13609",
"k. c #BC3403",
"l. c #B23A03",
"z. c #D50B02",
"x. c #C11602",
"c. c #C53A03",
"v. c #E12F02",
"b. c #974303",
"n. c #994006",
"m. c #AB4D04",
"M. c #B24504",
"N. c #BC4302",
"B. c #B14903",
"V. c #BA4109",
"C. c #B84E08",
"Z. c #AC5304",
"A. c #B35503",
"S. c #BB5504",
"D. c #B84310",
"F. c #AD5213",
"G. c #AD6C02",
"H. c #B36204",
"J. c #B26A03",
"K. c #BE6803",
"L. c #C94407",
"P. c #C54B04",
"I. c #CF4608",
"U. c #D84F02",
"Y. c #CF5105",
"T. c #C35B04",
"R. c #C95D03",
"E. c #D75503",
"W. c #C66005",
"Q. c #C46E02",
"!. c #CB6804",
"~. c #D26703",
"^. c #DA6502",
"/. c #D16904",
"(. c #C97504",
"). c #D57704",
"_. c #D97B03",
"`. c #ED6D03",
"'. c #E57503",
"]. c #F67C02",
"[. c #CF8004",
"{. c #D88504",
"}. c #D88802",
"|. c #DD9502",
" X c #E48303",
".X c #E18802",
"XX c #E98E03",
"oX c #F08403",
"OX c #E39202",
"+X c #E29A03",
"@X c #ED9C03",
"#X c #EAA303",
"$X c #F4A403",
"%X c #F2AB02",
"&X c #EBB303",
"*X c #F8B103",
"=X c #F2BC02",
"-X c #FACC02",
/* pixels */
"| @ X @ 9 $ @ B.b 3 Y , 3 ! u.x.@ : : - y :.W 7 O O @ e.1 & 2 Z ",
"@.B O j L v  .T.Z = % % o   . v @ = = o z @X%X,.G 5.T.j.{ M.e.- ",
"R N.G p.|.`.<.s a : : = = o o v j = o . ] V.y.Z 9 @ I t z S.A.* ",
"] r 7 j.-XF.' s = % % = = o   | >.j 2 ] F h h q : * 4 m.7.w m H ",
"b : q N f.A i = = = o X . . G M.I.XX.Xu.q a : : : % o 1.N a - f.",
"k $ % > T - = : = =   O 3 j k $ J =X&XF q = % : : % X > J z 3 !.",
"K.h.k [ ^.3 o = : $ ^ &.j $ o o 1 B.B.r : = o % = o   + h.[.>.( ",
"C._ $ # J I 2 L } c.OXV s : o o ; z I % : % o o % % # O 1._.Z a ",
"f d : = - 3 v /.y.x o.a d : % o : 7 O.1 = =     % = :   c ..9 : ",
"d a : : = 1 y u P c.x q : = = o = n %Xo.# o     o % =   Q { % = ",
": : : = o j M : D '.1 : = o = o . c D.%.3 X .   o o % O Q.2.o = ",
": : = o   ^ n.= & [ v $ % o   %   c ` w H #.j . o @ 2 U E T 2 : ",
": = # o . l.^.x 7 7.P.x & * o o   k 0 = j #XU.H ;.}.i.t : 7 _.9.",
"= % o . 2 H 2 3 [  X=XP 8 * %   O  .$ @ c %.C 9 1 M.b $ 8 I m.1.",
"o o O > v $ : ; 6 P c.G > > $ . v <.H.6.Z s a a : & c ..A.d.+ % ",
"^ 3 G s.J q d a i t z G H ! J v ~.>./.7 a : : = = % X G %Xw.& : ",
"$.=.*X+XA d d a : = # < ] oXI.} P.S J - = o o o o o   > -.7 : a ",
": j /.j.f d a : : o   . 2 6.y.f 1 z [ > o o o o o % = $ 3 & : : ",
"= & X.3 = : : : = o .   . , ( ; o ..].0.< = % o   o . 2.J % : = ",
". # n + o : = : = o       > 6 = * P $X{...b 5 2 3 G [ S.J o : = ",
"G I  .O X o o o           j < % = , +.1 - < > v R.$X) u d.4 @ o ",
"1 U ,.O     o o       . H *.> * * G F a d a = o k k.u z P.! v ;.",
"o . G.J.K > @ o .   > 3.M.$.f.0.{  XC a a : = = = M f.@.p a - Z.",
"  O A.q.P I X.n , j | `.L.6 %.F C @.1 : = : : : = # H.q.a a = 6 ",
"  2 T a : # ~ @Xu.x r m J | e i w w.8.q = = : : = o U l ; = = $ ",
"O H $ a = o , u.: d : = 1 M : - T !.).M % % = a : # S.v = - = v ",
"Q.Q = : =   k 5 : a = - W 1.L U b u ` Y 2 # # # - T (.^ b x J v.",
"OX+ - # o   J $ : = o # -.t.E.Z a s a q 5 +.4.G 2 7 i q P ~._.R ",
"o.] M 7 - , r.@ # o # c z.Y.W.r : a : : # ^ |.L - : a % $ 5.t.w ",
"> i.#Xh.c K 2.i.q.W 4 5 6 w.Q.5 : : : = o > [ 0 = : : % . G t a ",
"@ G XX/ < o . g.*Xa.0 a q 0 H , % : : : = o @.l o : : o O H ; a ",
"  c $.g : = o v i.@ = : : ; < 4 o : = % o X G.|.Y 1 + @ b.p.o = "
};
