/* XPM */
static char *result[] = {
/* columns rows colors chars-per-pixel */
"64 64 87 1 ",
"  c black",
". c #070707",
"X c gray3",
"o c #090909",
"O c #020202",
"+ c #010101",
"@ c #060606",
"# c gray2",
"$ c gray1",
"% c #040404",
"& c #0C0C0C",
"* c gray4",
"= c #0B0B0B",
"- c gray5",
"; c gray6",
": c gray23",
"> c gray7",
", c #101010",
"< c #323232",
"1 c gray18",
"2 c #0E0E0E",
"3 c #111111",
"4 c #131313",
"5 c #2C2C2C",
"6 c #1B1B1B",
"7 c #232323",
"8 c #414141",
"9 c gray8",
"0 c #161616",
"q c gray16",
"w c #373737",
"e c gray12",
"r c #151515",
"t c #252525",
"y c #282828",
"u c #202020",
"i c #181818",
"p c #353535",
"a c #2A2A2A",
"s c #191919",
"d c gray26",
"f c #222222",
"g c #393939",
"h c gray15",
"j c gray19",
"k c gray14",
"l c gray10",
"z c #1D1D1D",
"x c #3F3F3F",
"c c #343434",
"v c gray22",
"b c gray11",
"n c #818181",
"m c #1E1E1E",
"M c #2D2D2D",
"N c #898989",
"B c gray9",
"V c gray29",
"C c #3A3A3A",
"Z c #272727",
"A c #3E3E3E",
"S c gray24",
"D c gray28",
"F c #464646",
"G c gray13",
"H c gray17",
"J c gray25",
"K c gray36",
"L c #313131",
"P c #676767",
"I c gray31",
"U c gray47",
"Y c #6F6F6F",
"T c #7B7B7B",
"R c #6C6C6C",
"E c #E7E7E7",
"W c gray39",
"Q c #2F2F2F",
"! c gray20",
"~ c #EAEAEA",
"^ c #4C4C4C",
"/ c #5F5F5F",
"( c #585858",
") c gray32",
"_ c #434343",
"` c gray45",
"' c #484848",
/* pixels */
"         ++ + +O$%%%%%#%%O       +$O $#%O               +       ",
"          + +  +$$$%$$$$+          +O#%O                        ",
"+                 O$$O            O#@@#$                        ",
"++ +                             +$$#@@$                        ",
"+++                                ####                         ",
"+++     O$$%O                   +.@#@@#                         ",
"++      +O$$#%%$### +@$OO       OO  @@#                         ",
"+O        ++O%#.#$O +%@@.         $oo.#                         ",
"    O%%%%+   O#@.@XXXX@++       O%##XX@                         ",
"   +$+OO$+    O#@.@@@@o%     $uq*$$+@@@                         ",
"    +   %O   +@####@@@.o@    ejjy. +@.@                         ",
"        +     #O  O....o.   zpj5pZ +oo.                       ++",
" +$%O         #$ $o#@...   r<esiz1Z.X.*$                       +",
" $+++         %.XXX+$..7G74hqZwwj7Lr7779                      ++",
" $O+++        Oo.#%$XmQMMc2<aujCeH5zy<55t                     O+",
" O$%##O        .@.2qp5BQ<;Q>ascCf5 Q%5a7Z<H-*                +O+",
"+%%##$$        %.0te6u<rz<<0$QpMw,X<mqeHee6te   +++++        OOO",
"$%$%$          O+   $il1iiZ>=6pqj--Q=iZhB,     +OOO++        OOO",
"$$O++           +   OqZ4pit,*oqg 4 el162j2     +OO++         OOO",
"                  G *px 4Zy>&=   4 G5e Qw7 e;  +O+ ++        +$+",
"%%   +%          7wa64:#bfq4-=   9 7aH <s#H1j +$O  +++          ",
"$O   $@          kMevH2tbth4-=%+ 9 7yazregZk1OO$  ++++         +",
"+    %$          kZuG>fHmH7r22$% r 7yjmc-s7b5+OOOO+OO+         O",
"     $$          osa*hcHm5kr2; + B ta<uv5zzh*+OOO++            +",
"       +++        wtk,Qam5kr2-+  0 ta<uM1Bkw6+OO+ ++          +$",
"     +++++        aa6>LMGq1B;,.  B ZM<G5Q aq>$O  +++        +$$$",
"     @#++O+++    $3>@>L1fqjB;2#+ i qjLfMj ;3$++  +++       O#$$$",
"    O@#  +        bq >wQfqjB;2O=+i qjLfLj lh     +OO       %%$%+",
"    $@#           #&Mi:i7<<i,2+=*s apw9v!y&=              $%%$O ",
"    O@#            *w3<>bL<i,2 O.l Hgg wagB              $#%%##$",
"     OO            lx0g> 5<i,2O  l Hgu wqv!             O#%%%%%$",
"                   68*#+kpQ,3,&O$l tC< uegC             +#%%O   ",
"   ++              6g# 6ucQ;3;@;+l u:: O v:              #%%O   ",
"   +               =4 G<B<Q;30.oOl u:QZQ$ a    +         %O+    ",
"                   + 4MQB<Q33s3, l u:QZ!t     ++         O      ",
"                   ,59Z1Bjal3i90.l a!jZm!,3   +++               ",
"                   bd>z1Bjal36iG>6 5LjZe7:A  ++++              +",
"                   bJsM5kcal3zeueb 5LwZe1:A  ++++     + +      O",
"                   6wi1etpjl3aLZi6 5!:l4paC  ++       + ++     $",
"                   bwi1mbc1*3yMk46 h:vi3pZC           ++O+    +%",
"                   mCiM16a7Qh6fzruqyQQflphv          +++O+    +%",
"                   680t1tu<1t0rB9uqaHQhmLgC  +       +++++    O%",
"                   9:4m1tujyf9-X2G1QHQhm7gp+ +       +        %%",
"        +++       +4vs5y7ejM79O $G1Qa1tz1ga++O      +         %%",
"   +++++++++      +0wB5z7ejafu@O mtZaM0,!w5++O               O%%",
"   ++++++O++      +zc05a7GQZml;$ uHLaMmB!kp++O               O%%",
"   ++OO+  ++++    +lL9qHz1z=;0>o%s&0hc76j7<                 O%%%",
"     ++           $B!>fH=5jB;i3;=i qwq765ZQ+                %%%%",
"                  +>c0Zq uQB;r;;.i q!s76qcyO               O%%%%",
"                  O&QrZl GMr2r3o%B Z53B,M<t                $%%%%",
"                  +.arZubyMr2r2,@B h<6m2ML4                $%%%%",
"                  +#$2G7kzy&2>*%$B u1012Mzo                O%%%%",
"                  +O   ismh2--*OO9 sq;a-X                  +$$$$",
"                   $t%   kq4-*$$+9 71s   i,                +$$$$",
"                   $M>t=@*y4&.   9 7h=  uMu       +       +$$$$$",
"                 O%@q,5aerf,**%O@4 ue$Zqhqm++            +O$$$%%",
"                 $#.q,5kee7,**@@@> eh0aMhym$$+          O$O$$$##",
"               +$##.y,tZbB7,**@@@> eh,Httyz##%         O$$O$$$##",
">#=#@O=X@l0X+X#-Xi>iZ&ffBi6=X,6hh4 lz-7uGktu6o3%     =3=%o$#$*#*",
"ml=&bis.bee7e40Haqi1jkbz60zXXspppr 47,tzu1MMaz0BsG$ ,llr-XX3,-2r",
"Bb&lsB6.449b79yhZ50umemB24l.X2kGf> 9u=zurubzfyrkfusX4,,>9@;;,,X2",
"&2Oo&@&$#$X2>$,920oX%;ri%36X0$o%,3$&44-l%X%;43%;>=3$%OXX@O#@%.O%",
"%$O$@+O+O$O%%$@=O#$$%%.#%o3O*+$##.@#X; X+$%##%%@= #+O$$OOOO$ O +",
"$%OOO++OOO$%##$$OO%O$#@X@##%$#$%#Xo.%%O$%O%%#@%$$OOO+$$O$O++ +++"
};
