/* XPM */
static char *_68ee601133c445aa2974b63f75c46a8FIrHt1Icm0JGoRVJ[] = {
/* columns rows colors chars-per-pixel */
"64 64 251 2 ",
"   c #040404",
".  c #0B0504",
"X  c #0B0807",
"o  c #090708",
"O  c #0C0C0C",
"+  c #140403",
"@  c #1C0403",
"#  c #190807",
"$  c #130C0B",
"%  c #1B0C0B",
"&  c #13100E",
"*  c #1D100F",
"=  c #110F10",
"-  c #141414",
";  c #1B1313",
":  c #1A1818",
">  c #1B1B1B",
",  c #240303",
"<  c #2B0303",
"1  c #260807",
"2  c #240B0B",
"3  c #2B0B0B",
"4  c #330303",
"5  c #3B0404",
"6  c #350806",
"7  c #330B0B",
"8  c #3B0C0C",
"9  c #26130E",
"0  c #360F10",
"q  c #241312",
"w  c #2B1413",
"e  c #2A1816",
"r  c #231C1B",
"t  c #2B1C1C",
"y  c #341414",
"u  c #3B1414",
"i  c #371B1A",
"p  c #331C1C",
"a  c #25201D",
"s  c #362B17",
"d  c #3A3216",
"f  c #261F20",
"g  c #1F2020",
"h  c #232222",
"j  c #2B2323",
"k  c #2A2A2A",
"l  c #372929",
"z  c #353030",
"x  c #440303",
"c  c #4B0303",
"v  c #4A0807",
"b  c #440B0B",
"n  c #4A0B0C",
"m  c #540303",
"M  c #5C0303",
"N  c #530C0B",
"B  c #590909",
"V  c #461818",
"C  c #501010",
"Z  c #581514",
"A  c #640303",
"S  c #6B0302",
"D  c #680B09",
"F  c #740303",
"G  c #7C0303",
"H  c #770C07",
"J  c #6A1205",
"K  c #7C1504",
"L  c #6E0F10",
"P  c #671616",
"I  c #741915",
"U  c #4B2F15",
"Y  c #63291A",
"T  c #482727",
"R  c #552E2E",
"E  c #682222",
"W  c #722827",
"Q  c #5D480B",
"!  c #594519",
"~  c #6D4D0F",
"^  c #684916",
"/  c #695819",
"(  c #786319",
")  c #584527",
"_  c #5E5023",
"`  c #685127",
"'  c #785925",
"]  c #7F6933",
"[  c #830403",
"{  c #8C0303",
"}  c #840C05",
"|  c #8A0B06",
" . c #930303",
".. c #9C0403",
"X. c #940A03",
"o. c #980C04",
"O. c #861605",
"+. c #8B1204",
"@. c #991704",
"#. c #901713",
"$. c #A40303",
"%. c #AC0403",
"&. c #A30B03",
"*. c #A90E05",
"=. c #B30503",
"-. c #B90903",
";. c #A81604",
":. c #B71903",
">. c #882303",
",. c #992404",
"<. c #9B3403",
"1. c #A92805",
"2. c #B62703",
"3. c #A83404",
"4. c #B23403",
"5. c #BB3604",
"6. c #C50302",
"7. c #C80603",
"8. c #D80602",
"9. c #C51603",
"0. c #D61603",
"q. c #EE1301",
"w. c #E71A02",
"e. c #C72803",
"r. c #D62803",
"t. c #C53A03",
"y. c #D83603",
"u. c #C33A19",
"i. c #E72B02",
"p. c #E73B03",
"a. c #F13503",
"s. c #884B14",
"d. c #B64803",
"f. c #B14F0E",
"g. c #85671C",
"h. c #8B6C1D",
"j. c #AA621D",
"k. c #B97C12",
"l. c #BE7A1F",
"z. c #815F26",
"x. c #8A6D28",
"c. c #986B23",
"v. c #AD6B24",
"b. c #AA7B26",
"n. c #CA4903",
"m. c #D74903",
"M. c #CB5803",
"N. c #D75902",
"B. c #ED4603",
"V. c #F14902",
"C. c #E65703",
"Z. c #F35602",
"A. c #D86503",
"S. c #CD700D",
"D. c #DA7703",
"F. c #E56604",
"G. c #F26A03",
"H. c #E67703",
"J. c #F27A02",
"K. c #CE7322",
"L. c #9D8318",
"P. c #AC8B10",
"I. c #BE8212",
"U. c #BC821C",
"Y. c #B79719",
"T. c #B78A29",
"R. c #B59526",
"E. c #BEA121",
"W. c #D88602",
"Q. c #CD980F",
"!. c #C28613",
"~. c #C58A12",
"^. c #CC8D19",
"/. c #DB8F16",
"(. c #CC9415",
"). c #DA9916",
"_. c #D4941C",
"`. c #D8991C",
"'. c #E98803",
"]. c #F48903",
"[. c #EC9603",
"{. c #F59603",
"}. c #DAA70C",
"|. c #DBA418",
" X c #D8B51C",
".X c #E8A305",
"XX c #F8A203",
"oX c #F6AD02",
"OX c #FAAC03",
"+X c #EAB708",
"@X c #F8B803",
"#X c #FCBF06",
"$X c #F4B60E",
"%X c #F6B90D",
"&X c #F9BC0A",
"*X c #EAAC14",
"=X c #E2A419",
"-X c #E3A818",
";X c #F5AD19",
":X c #ECB213",
">X c #EAB718",
",X c #F1B310",
"<X c #C68D25",
"1X c #C8982A",
"2X c #D59823",
"3X c #C79A30",
"4X c #E49428",
"5X c #CCA727",
"6X c #D8A428",
"7X c #DAB823",
"8X c #E5A720",
"9X c #E7AB25",
"0X c #EBB628",
"qX c #F2B828",
"wX c #F5BB2C",
"eX c #F9BF2D",
"rX c #E5AF32",
"tX c #E9B534",
"yX c #F4BD36",
"uX c #ECC007",
"iX c #FDC106",
"pX c #FBCD03",
"aX c #F4C809",
"sX c #FED501",
"dX c #FDDA02",
"fX c #FDD30B",
"gX c #EAC515",
"hX c #F0C812",
"jX c #FDCE15",
"kX c #FCCB1C",
"lX c #FCD111",
"zX c #FBD31C",
"xX c #FEE902",
"cX c #FAC525",
"vX c #F4CE25",
"bX c #FBC822",
"nX c #FAC12B",
"mX c #F0CB29",
"MX c #FCD527",
"NX c #F9C132",
"BX c #FAC43D",
"VX c #F5C549",
"CX c #FDD949",
"ZX c #F7C954",
"AX c #FCD75A",
"SX c #EFCC64",
"DX c #FCD867",
"FX c #FCDE74",
"GX c #FDE16E",
"HX c #FDE272",
"JX c #FDE47E",
/* pixels */
"-.M + O X X X $ ; ; * $ O @ F X.% % 7 M &.+.M x c S X.4.t.y.i.$.1 & > g g : - > > 0 =.[ C V y % o   O O O $ < 1.x $ - - . < G u ",
"{  .@ o o . + 2 w 3 2 % X , d.H.[ c 4 1 @ # . o . @ < 5 5 S 8...% O - : > - = : t V ;.e.+.H B 5 , @ @ , % 1 ,.A.4 # % # , M 8 t ",
"c 9.4 + . + , 5 n n 8 6 6 G '.H.O.3 - = O - O O O   . . . + M F # O - : : = O - q Z t.@XoXF.e.=.F A  .1.d.e.p.n.;...} F o.F 2 > ",
", 4.,.@ + , 5 m F H F S =.8.;.n r : : - - : - = $ O o       @ M , O - ; - O O o 1 M C.sXxX].r. .M 5 A 3.'.4.n i u D :.].H.x ; : ",
"+ >.F.F < 5 M O.d.n.m.B.w.| i j h g g > > - : - = O O o o   @ S 4 . - - O O o   < ..B.F.M.,.L n 9 $ # , H { e h t w @.OX[.x $ - ",
"+ @.m.;.F { *.N.oXfXOXZ.#.T z k h g > > - > - - - = = = O   @  .G @ & & O O   @ A =.H I W Z V e : - O O 1 { n q 1 F -.,.t.&.1 $ ",
"< -.D 7 5 m X.F.dXxX[.#.R R z j > - - - - - : : : > - O o o , 7.7.S < % % @ , M  .C V T T T p > > > - = # M &.b o...7 2 3  .m # ",
"F G e r t 7 m @.oX+X,.E R l k : - = = O O = O O O O O     . S *.Z 0.S x c c { -.b t z z l j a g > > $ = $ , @.'.5.u a h q x $.x ",
"{ 3 : h j t V B C.4.Z T l a : - - - - O O O O o o         4 M.C.;.Z.C.K.).>XaXMXMXmX7XR._ > > g g > = = # X x n.N r h h > 9  .:.",
"b $ - ; - r q 5 &.N i p t q - - - - - O O O o o       @ c ;.3.J v.;XzXdXsXdXsXsXsXsXsXsXfX5X` a g > = = - o , [ M % a a > & 5 F.",
"m @ O - - - O < F 3 ; : : : : - - : - = o       + , 4 M G m ( 7XdXdXsXsXpXuX}.}.}.}.uXsXsXsXvXT.h : = = O o . 4 F 6 w e $ @ c [.",
"F 5 1 + O $ @ 5 6.m $ & - - - : : ; - = o   + < c c x 4 /  XsXsXsXpX+XQ.k.k.k.k.k.k.k.~.aXsXsXnXrX_ O O O o o < [ F B n 5 M e.J.",
"X.:.F 5 , 4 A e.J.4.@ . - = - : : > - = + , [  .S 5 U E.lXsXsXpX}.k.k.k.k.k.k.k.k.k.k.k.I.pXsXlXnXtX' O O   o < S r.1.| &.7.@.N ",
";.iXJ.7.F M M } S.C.S + o o - - : - % 1 K y.w. .4 ( gXsXsXpX}.I.k.k.k.k.k.k.k.k.k.k.k.k.k.}.sXsXnXwXNX]   O . < A D.pX].9.N i r ",
"9.].n.L 3 @ # @ < =.%.< . . O - * 7 } n.oX].@.< R.lXsXsX+XI.k.k.k.k.k.k.k.k.k.k.k.k.k.k.k.~.dXsXnXwXnXtX! O + , M n.pXA.L u a k ",
";.L T s ; O O O ; x G m 5 m F } $.=.0.C.oXd.d  XdXsXpXQ.k.k.k.k.k.k.k.k.k.k.k.k.k.k.k.k.k.k.sXsXAXBXnXnXrXd O + x o.Z.} C t > j ",
"i l k k > - = = ; 3 5 x m { p.XXy.P w A e.^ vXdXsXuXI.k.k.k.k.k.k.k.k.k.k.k.k.k.k.k.k.k.k.I.sXsXHXHXBXNXeXT.-   , G 0.n w r > h ",
"k k k h > - - - - ; 7 < 4 2 J N.@.j ; H j.aXsXsX}.k.I.k.k.I.~.k.k.k.U.^.^._._.^.^.!.U.k.k.~.sXsXGXJXFXNXnXwX)   + A $.7 ; : > : ",
"k k k h > : > > : - 2 4 5 h j Z } : v K.zXsXsX}.k.k.k.k.}.#XiX(.^.`.`.`.`.`.`.`.`.`._.(.I.Q.sXsXJXJXJXAXeXeX3X  + [ %., = - : - ",
"j h h h g g > - - # @ 5 c j k t C  .K.lXsXpXQ.k.k.k.k.!.#X$X).$X`.`.`.`.`.`.2Xl.b.' ^ ' c.}.dXzXJXJXJXJXBXwXwXd @ 2.:.@ O = - - ",
"g g h g g g : - O O # m A e r > q j.MXsXpXQ.k.k.k.!..X,X&XiX&X,X`.`.`.`.2XK.u. .< . O   O  XsXCXJXJXJXJXDXwXeXc.x H.d.@   O - - ",
"> g g g g - - O O o + S { % > : / aXsXsXQ.k.k.k.!.@X$X&X*X).=X`.`.`.<Xc.*.W E D A < + . ! dXsXGXJXJXJXJXJXwXeX3X4..Xd.< O O - : ",
"- g g > - - O O O   @ o.:.% - d gXdXsXQ.k.k.k.I.$X#X$X&X|.`.`.`._.c.3 F I T p p n { M 5 Y.sXfXJXJXJXJXJXJXVXnXrX;.B o.A @ O - : ",
"- - - - - O O o     @ d.D.< O 7XsXdXQ.k.k.I.^.`.#X=X,X*X`.`.2X<X!   + S V j : - 3 { p.1.hXsXCXJXJXJXJXJXJXAXeXyXy t 8 %.M @ - - ",
"> - - - O O O o     < A.OX,.E.sXsX}.I.k.!.).%X&X%X`.`.`.`.`.b.e     , M i r - - 1 A D.MXsXsXHXJXJXJXJXJXJXFXeXeXr h % F y.O.6 1 ",
"> > - O = O O     + [ a.V.H.zXsX+Xk.k.~.=X#X:X$X*X`.`.`.2Xh.= o     < S w ; = = % M M.lXfXMXJXJXJXJXJXJXJXFXeXeX- : $ 4 H.aXA.;.",
"> - - - O O o   @ 4 { { Y hXdXpX!.}.).2X$X&X%X&X=X`.`.`.] - O     + A  .1 - O . , m `.sXdXGXJXJXJXJXJXJXJXFXeXyXO - # A F.D.d.:.",
"- - - O O o o + < m x , E.sXsXQ.!.iX|.-X&X=X*X*X`.`.2X~ . O       1 %.9.1 # $ , c s.zXsXCXJXJXJXJXJXJXJXJXJXwXrX2 7 x -.H , 1 1 ",
"O O O O O . . @ m c 1 / lXsX+XI.*X%X&X%X#X`.`.`.`.2X' # + X .   , x 8.e.1.A B X.G  XsXsXBXDXJXJXAXCXJXJXJXJXeX6XB F 9.o., O O & ",
"O o o $ + @ , x { 4 % 7XsXsX~.`.$X#X%X=X#X`.`.`.`.c.< < 3 , +   <  .#.j 3.+XN.J L.sXsXbXeXeXyXCXsXJXMXGXFXFXeX4Xm.].C.A , X & - ",
", # @ , 4 x c =.$.1 g.sXsX}.2X`.%X#X&X%X$X`.`.`.b.c m M c 5 < , A w.H Z A.[.J ^ jXsXfXeXeXeXNXkXsXCXfXHXJXFXnXj.oXxXM.B # - - > ",
"t.G c M S { e.p.F 9 7XsXpX`.`.`.$X$X*X*X`.`.`.<XI  .@.3.+.S M  .H.{.w.;.M.,.U gXsXsXnXeXeXeXnXcXsXzXAXJXJXDXtXM N.{.;.N % : > h ",
"2.=.8.0.H.@X@Xm.n ( sXsX*X`.`.).%X*X`.`.`.`._.^ S 6.V.{.C.6.$.7.G.G.#.a D A 7XdXsXcXeXcXeXeXbXkXsXeXZXJXJXZXT.4 *.i.B 7 ; : h k ",
"y 8 N o.].xXpX2.Z 5XsXsX`.`.=X#X%X,X`.`.`.`.c.# c } m.@XF.#.P b A $.y a C 5XsXsXkXeXkXlXeXkXfXkXsXeXBXJXJXyX! @ G  .8 ; : h j h ",
"j ; 7 A 5.OXH.H V lXsX>X`.`.*X%X=XiX`.`.`.<X$ + < m G M.5.W T w r 6 8 $ Y.sXsXlXeXcXsXnXeXfXjXjXjXnXNXJXDX1XO @ c 5 % - > h h g ",
"g - 2 x [ V.o.Z x.sXsX-X`.`.$X#X&X#X=X`.`.'     + < c { ;.R l h ; 2 M P.sXsXlXNXeXkXkXeXeXsXfXjXnXnXVXJXZX! - < x , $ - > - - - ",
": - ; 3 m 8.A 7 E.sXpX`.`.`.:X$X*X%X*X`.<Xo o o . + , x  .T j = o $ Y.sXsXlXnXnXeXjXkXcXnXsXcXeXnXeXZXHXT.O @ F G # = - - - - - ",
"O O O q b $.5 % 7XsXhX`.`.`.*X%X`.*X*X`.h.o         . 4 A i : &   5XsXsXlXnXeXeXeXfXsXfXnXsXnXeXeXeXDXZXr + c N.} - = - - > - - ",
"o o O : 8 F < O gXsX+X`.`.&X:XiX`.,X*X2X9           . 4 x t - d 7XsXsXjXnXeXeXeXeXfXsXnXcXsXeXeXeXBXFX' < M y.{.O.# O - > g > - ",
". o o 2 x S , X MXsX>X`.=X&X=XiX*X@X=XT.            @ 4 6 q / gXsXsXjXeXeXeXeXeXnXlXsXjXsXkXeXeXeXDX3X{ *.=.H +.{ @ o O O - - - ",
"4 , , < [ G ,   lXsX>X`.`.&XiX:X`.`._.c..           , x 6 b.jXdXsXkXNXNXeXeXnXkXnXjXjXcXcXeXeXeXVXZXaXJ.;.V p b %.< @ X O O O O ",
"[ G G $.8.{ @   vXsX>X`.`.`.).`.`.`./.'           @ x ~  XsXsXsXbXwXeXeXeXeXsXjXnXjXlXnXeXeXeXeXSXS.sXA.P l j n p.d.J < 2 @ + O ",
"< x F 6.q.o.+   >XdXhX`.`.`.`.`.`.`.`.~         + 6 _.lXsXsXlXnXeXnXeXnXeXkXsXjXbXsXfXeXeXeXyXSX' F N.e.E h r B V.D.1...M m 5 , ",
"$ # 1 < ;.;., . Y.sXsX`.`.`.`._.`.`.`.^     . 2 L.aXsXsXsXkXeXwXeXwXbXsXkXfXkXjXjXjXlXeXeXeXVX] # 6 G 9.8 ; * A 7.v 9 3 6 G 0.m.",
"$ O O + 5 F.>.< Q fXsXaX`.`.`.`.`.`.`.c.  Q P.hXsXsXsXjXnXeXeXeXeXnXsXjXnXsXeXeXeXjXjXeXeXwXx.- - ; 7  .X.4 4 F N a g : q 3 O.].",
"O .   . c uX@XM.@.|.sXsXpX>X|.`.`.`.-X X0XdXdXdXsXjXcXeXeXeXeXeXcXkXsXfXkXfXeXeXcXsXnXeXwXg.: : : : ; 6 9.C.m.| l k k h ; & 3 d.",
"o     + K [.d.,.+.f.wXsXsXsXsXsXsXsXsXsXsXsXsXkXcXeXeXeXeXeXeXlXfXlXkXkXjXcXeXeXkXcXeXqXg.> - - - : - @ K oXN.u t k k h : & ; N ",
"      , 1.4.w e 9 1 b.>XaXsXsXsXsXsXsXsXlXbXnXNXeXeXeXeXeXeXbXsXnXjXcXeXeXeXeXeXeXeXyX] - > > : - = O + < y.+.9 : h k > - - $ 3 ",
"      < -.Z j j g - s 1X8X-X>X0XbXnXnXeXeXeXeXeXeXeXeXeXeXeXjXsXjXsXnXeXeXeXeXeXNXrX! > - : > g - = O   , $.A % : g > = = - - 2 ",
"    + A [ w h h > - = ! 6X8X8X=X8X9XwXnXeXeXeXeXeXeXeXeXeXeXfXkXkXcXeXeXeXeXeXeX1Xd - - - : g h : = O o 1 =.A # - : - : = - O , ",
"  . , G < $ g h > - O   ' 9X8X9X8X8X9X9XqXeXeXeXeXeXeXeXcXlXfXyXeXeXwXeXeX0X9Xv.& O = = - - g h > - = O 5 y.F # - - - > : o + x ",
"+ , { A % - h h - O O O O s.9X8X8X8X8X8X=X8X9X0XqXwXkXsXfXbXnXnXeXwXqX0X9X4Xj.0 ; O O O = - > g f - = 2 <.[.K + - = - : ; + < $.",
"c 2.2.< ; : g > - = O X + M s.2X8X8X8X8X=X8X8X8X=X8X8X-X9X9X9X8X8X8X8X8XT.Y ..G 6 @ O O O O = : : ; w D '.@X4.< 2 % w u 0 5 &.q.",
"[.{.H # - : : : = O X   @ A 4 s b.9X8X8X8X8X8X8X8X8X8X8X-X9X8X8X8X9XT.R l l i c c 4 , + # @ O O ; w A 9.1.K H [ [ S M D H +.V.a.",
"sXW.< X = - - - o       @ G < = : _ T.8X8X8X8X8X8X8X8X8X9X-X8X6Xb.) k k k k a e 4 A G c c x 6 < 4 5 m 7 q t t w m $.9.A.D.C.1.m ",
"[.d., X % % $ $ = o     < [ 1 = - - = U g.T.2X6X8X=XrX2X4XK.' r h k h k h h > - 2 5 %.y.n.1.[ A 5 < q ; h h : : w v ;.OX@X,.v 2 ",
"O.9.c 5 6 8 w q : = O # A } @ O $ O O o   o + x 6.q.;.} p.H u q > r > h h > > - = * c 5.sX[.X.n ; : > h k g > - $ 7 A C.5.P u ; ",
"1 F -.{ F L N u q ; 2 b S.<., X . O - - ; % 4 { 6.0.V.].OX@.n q > > g h g > - - O $ 6 S A.5.Z y : > - h k > = O O + 5 -.L V s h ",
"& 6 [ i.F.n.+.M v m F ;.d.4.@.x 3 9 e q 3 4 c c 4 v } A.@Xd.M 2 - > g g g > : - O O # 5 o.X.8 ; : - > > > - = O X o < { u j h h ",
"$ < M 5.iXsXG.-.F c , , @ 5 9.B.n.3.@.[ m 5 3 q ; w C K 4.:.c % - : > h g g > - & O o @ A $.3 O - O - - > - = O o o < S w h h h ",
". , c +.oX@X4.D 6 % X o   + A F.iX@XZ.=.5 9 h h r r w v M  .5 $ O - > > > g > > - O O o 5 -.< $ O O : : > : = O   + m m ; > h h ",
". + 4 F C.e.L 8 q - O O o o , 4.OX[.1.3 q r h h h h r w 7 F 5 . O - > - - - - - - - O o < n.>.@   O - > : - O o . ,  .c % ; > h ",
". . , S 0.Z V t r : - & O   + { V.@., - : > : g h h : - # 5 M # O - - > - - - O - O O . < W..XO., @ $ - $ X o . @ H 0.6 = = > : ",
"$   @ S H i l j g > : O O o . S %.< o O O = - - : > > - - , c # O - - - - - - - $ O O + c .XpXJ.:.[ c 3 , @ , < >.H.m., O = = - "
};
