/* XPM */
static char *result[] = {
/* columns rows colors chars-per-pixel */
"64 64 256 2 ",
"   c #050404",
".  c #0B0505",
"X  c #080A09",
"o  c #0C0C0C",
"O  c #130404",
"+  c #1C0403",
"@  c #160807",
"#  c #120C0B",
"$  c #1C0C0C",
"%  c #0C100F",
"&  c #1B130D",
"*  c #18190C",
"=  c #051313",
"-  c #0C1512",
";  c #0C1A13",
":  c #081819",
">  c #0D1B1B",
",  c #131313",
"<  c #1A1414",
"1  c #141B14",
"2  c #1D1B14",
"3  c #1B1619",
"4  c #121C1B",
"5  c #1B1B1B",
"6  c #230303",
"7  c #2C0404",
"8  c #280A07",
"9  c #240C0C",
"0  c #2B0B0B",
"q  c #340303",
"w  c #3B0304",
"e  c #370B0A",
"r  c #26190D",
"t  c #3A170B",
"y  c #2E0E11",
"u  c #231514",
"i  c #291414",
"p  c #251B14",
"a  c #2B1C14",
"s  c #221C1B",
"d  c #2B1C1B",
"f  c #391817",
"g  c #341C1C",
"h  c #0B221C",
"j  c #162318",
"k  c #1B221B",
"l  c #26220B",
"z  c #38220D",
"x  c #262316",
"c  c #2D2214",
"v  c #24221C",
"b  c #2B221B",
"n  c #362517",
"m  c #34221C",
"M  c #3B221E",
"N  c #131C21",
"B  c #271F21",
"V  c #381D23",
"C  c #052223",
"Z  c #0C2828",
"A  c #132423",
"S  c #162727",
"D  c #1B2424",
"F  c #1B2A25",
"G  c #142D2B",
"H  c #1C2C2A",
"J  c #19312D",
"K  c #182F32",
"L  c #1C3433",
"P  c #1A3938",
"I  c #232322",
"U  c #2B2423",
"Y  c #272A27",
"T  c #2B2B2A",
"R  c #342222",
"E  c #3C2222",
"W  c #3B2B27",
"Q  c #342B2A",
"!  c #26322C",
"~  c #39322A",
"^  c #322D32",
"/  c #243635",
"(  c #393835",
")  c #4B0304",
"_  c #460808",
"`  c #540303",
"'  c #5C0404",
"]  c #570A0A",
"[  c #53170D",
"{  c #451A19",
"}  c #561B1A",
"|  c #630303",
" . c #6B0303",
".. c #660B0A",
"X. c #730303",
"o. c #7C0704",
"O. c #6A1911",
"+. c #751A15",
"@. c #492617",
"#. c #44211D",
"$. c #4A221C",
"%. c #54281B",
"&. c #503019",
"*. c #66251B",
"=. c #702F19",
"-. c #461F22",
";. c #561F21",
":. c #432222",
">. c #4A2222",
",. c #442B26",
"<. c #4C2A22",
"1. c #532624",
"2. c #592726",
"3. c #542A23",
"4. c #5B2C24",
"5. c #542B2A",
"6. c #48342A",
"7. c #5A3529",
"8. c #482E30",
"9. c #483935",
"0. c #583A36",
"q. c #662C27",
"w. c #782825",
"e. c #633325",
"r. c #6C3524",
"t. c #64332A",
"y. c #6A392A",
"u. c #733B24",
"i. c #7B3D25",
"p. c #743528",
"a. c #733B29",
"s. c #7A3C2A",
"d. c #653935",
"f. c #753B34",
"g. c #604214",
"h. c #50412A",
"j. c #584239",
"k. c #7D4125",
"l. c #75462A",
"z. c #7D422B",
"x. c #674439",
"c. c #704C31",
"v. c #784738",
"b. c #343C40",
"n. c #633E42",
"m. c #3D4947",
"M. c #504B48",
"N. c #684743",
"B. c #775546",
"V. c #71544D",
"C. c #766255",
"Z. c #756964",
"A. c #830303",
"S. c #8B0704",
"D. c #990603",
"F. c #86150D",
"G. c #981805",
"H. c #A90603",
"J. c #B70503",
"K. c #A91704",
"L. c #B31B0D",
"P. c #912E16",
"I. c #B02B09",
"U. c #B83703",
"Y. c #AA361B",
"T. c #8F302E",
"R. c #873A29",
"E. c #963828",
"W. c #893C33",
"Q. c #AA3A27",
"!. c #CD0B03",
"~. c #D91402",
"^. c #E41902",
"/. c #DB2602",
"(. c #C73703",
"). c #CD3109",
"_. c #EB3003",
"`. c #C33C22",
"'. c #914A1D",
"]. c #B04911",
"[. c #B7651F",
"{. c #834325",
"}. c #84432A",
"|. c #8B4828",
" X c #924B24",
".X c #974929",
"XX c #895328",
"oX c #975429",
"OX c #874A36",
"+X c #984A38",
"@X c #895439",
"#X c #985636",
"$X c #A84929",
"%X c #B74A27",
"&X c #A85527",
"*X c #B35324",
"=X c #B95827",
"-X c #AD5335",
";X c #966536",
":X c #B8642A",
">X c #B86938",
",X c #AA7033",
"<X c #C44804",
"1X c #D74503",
"2X c #CB550E",
"3X c #E84E02",
"4X c #D76803",
"5X c #D2720A",
"6X c #E86503",
"7X c #F56E02",
"8X c #E67802",
"9X c #C84B28",
"0X c #C65728",
"qX c #D55926",
"wX c #D05830",
"eX c #E85526",
"rX c #C86729",
"tX c #D66926",
"yX c #CA7327",
"uX c #D97428",
"iX c #CF6C36",
"pX c #E5682A",
"aX c #F06F2D",
"sX c #E67726",
"dX c #855946",
"fX c #8C544A",
"gX c #945C47",
"hX c #8B634E",
"jX c #9A6448",
"kX c #88675A",
"lX c #956857",
"zX c #A66848",
"xX c #B26C4B",
"cX c #A56C58",
"vX c #AA765A",
"bX c #B5785A",
"nX c #917166",
"mX c #9B7C74",
"MX c #CE754B",
"NX c #C47B61",
"BX c #D68712",
"VX c #EC8403",
"CX c #F19105",
"ZX c #F7A808",
"AX c #F8B602",
"SX c #E98D27",
"DX c #E8B130",
"FX c #FBCB02",
"GX c #FDD703",
"HX c #FDE502",
"JX c #978578",
"KX c #B28771",
"LX c #D58A4F",
"PX c #CA8F73",
"IX c #938882",
"UX c #AD9287",
/* pixels */
"{ { m b b I d V *.>.M R m d E b s v s d M E { E M { :.E g ;.e.*.q.=.u.=.r.u.%.{ V #.:.:.M s d R R V R b v d c { :.E R :.R -.-.2.",
"{ @.:.R R V E R V E :.V U b R U B V U R :.#.E E M :.E E :.:.#.E -.-.-.E #.E #.:.:.:.:.M E R m E R R R R m R R E $.#.-.V V -.{ { ",
"] -.>.#.-.:.V V :.:.:.R :.:.:.E -.B 3 V #X-XOX2.>.:.>.>.>.:.>.-.:.-.>.>.>.>.>.>.>.>.:.>.>.>.:.E :.:.M R :.-.-.-.+.{ _ f 0 f P.CX",
"A.` { { -.V E V :.:.M E :.:.V :.R 3 , o   { f.} :.#.:.:.>.>.:.:.M :.:.>.>.>.>.>.-.-.>.-.-.>.$.E :.>.E g V -.V { A.H.X.] ` D./.<X",
"H.1XD.` q ) F.8.V V E M $.f u 5 5 5 , # + ] H.T.2.1.5.5.:.1.>.-.:.:.E E >.4.t.1.4.>.>.>.>.{ d.-.E E V V i   . 7  .1X<XL.!.H...y ",
"U.GX7X!.X.) w e ;.P.;.{ 9 o , 3 1 3 $ q G._.^.T.p.1.-.:.-.R 5.4.t.M E E -.:.-.>.t.2.q.t.1.1.V d E g u X     O 7  .8XGXCXK.] g I ",
"(.CXU...8 + @ 9 w !.D.7 . . o $ < q A.4XAXCXS.V f.:.1.t.:.-.:.>.q.-.-.} -.-.>.>.4.3.1.2.# X o % , % o o o o . 6 | <XFX4X..f B T ",
"J.F.;.g , . o % $ ` A.) q 7 w ' A.J.^.7XAXU.7 s T W p.p.p.>.E q.2.E 8.2.2.<.p.E.{ 3 , # X     % % , % # % , o + ) K.6XG.] d s I ",
"{ W Q I 3 % - , , 7 ) ) | H._.8X~.F...G.1X_ & B T T f.:.,.:.-.-.E >.-.E t.d.W.i 3 , , o o     o % % % , , , #   7 o.~.] f u I I ",
"U T T I 5 , , , , y q q w ) U.ZXG.U 3 ..D.6 , T T I <.W.2.-.5.f.q.t.q.1.4.W.R.+ % , , o o     X # # , , , 5 o   +  .J.e u 5 5 5 ",
"T T Y I 3 3 3 , 3 < 7 q q 2 y L.F.I + D.X.$ I I I I 5 a.q.t.-.>.:.R 5.R.|.Y.' 6 & % % o X       o % % , 3 5 X   O  .D.8 , 3 3 3 ",
"T T I I 5 5 5 1 , , 8 q e U b { X.9 o.~.' < I I I 5 3 p.:.-.t.:.>.:.:.>.g.CXS.) $ o o o         o o % , 3 1     O D.J.6 o - 3 , ",
"I I I I 5 5 5 3 , o + ) _ U Y U ] H.6X6X) < 5 5 3 , , 1.R.2.W.f.q.4.q.-.,XGX].' + X o o X       o o % % , 3     6 U.I.+ X , , , ",
"5 I I I I 5 5 , - X + ` | p I 5 u K.ZXVXw < 5 5 , , # % Q.$XQ.9X&XT.R.$X6X<X!.S.q . X X X X     X o # # , ,   . ) 8X].6 X o # , ",
"5 5 5 I 5 5 , # o X + X.X.< 3 5 < e ).3Xq < , 3 3 % o o .Xd.1.-.|.#XE.A.H.+.*.A.' 6 O X   X     X o % % o o   6 I.AX].8 X o , 5 ",
"3 3 I 5 3 , % o X   + D.H.$ , , , $ X.!.) 9 < , , % o   Y.%XfX7.5.d.+Xo.+.8.E f | | w 7 +       X X X X . O + X.(.F.K.) O   , 5 ",
"3 4 3 3 - o o X     6 U.U.$ % 3 , $ w H. .e 9 & , % o 8 -Xn.W.W.W.$XO.X.} Q s u e J.H.| ) 6 .   . O # O + 7  .H._ y ..D.7 O < 3 ",
"3 , < % % o X X     6 4XCXw # 5 u 8 w H.D.` e 9 & # o %.wXfXgXB.0.p.+ ' g v 3 % 8 X.6X8XK.' 7 6 6 6 6 ) S.H.A.t d B 0 D.H.6 $ , ",
"3 3 - % % o X .   O ` 7XCXK.6 9 i q ` H./.X.) e 9 , X '.sXDXsXwXB.f.7 ' g s 3 , 9 | BXHXVX^.D. .H.I.2X8X1XD.f d B 5 $ ` 3X].' 8 ",
"4 3 , , # % X     + D._.3X~.A.) ) ' D.8XCXI. .{ a x g.[.SXaXsXSXpXw.q  .i 3 % % 9 ' 2XAX3XJ.| ) S._.AXAXG.0 < 3 , 3 # 7 8XFX8XL.",
"5 3 , % % o .   + w D.o.) w w ' S.!.6XFXHX4Xo.[ y f yXCXZXsXSX[.&.O  .S.9 % o . 6 ` !.K..._ 9 & 8 ) 2X4X7 @ , , % , + ..6X5XU.K.",
", , # # o X X O 7 ' ) + + # + 8 ) X.(.AXHX8Xo._ 8 *.g.DXDX].sX'.. 7 J.J.8 # # + q A.O.{ f 3 , , , 9 ) L.o.8 $ @ $ 0 w J.D.q 8 7 ",
"% % % o o X   + ) ) 6 o % , % $ 0 ` o.U.8X6XX.w t n $XSXDXE.Y.r 6 w ~./.X.8 7 ..S._ E U B 5 5 3 5 , 9 _ D.| w w ) ' H.H.7 @ # # ",
"X X X o O O O q X.w $ , , 3 3 < y e ] o.D.~.X.w d i.9XBX6.N `.{ y o.H.O.(.5X(.D.e d U Y I D I I 5 3 , $ 7 ) D.H.G.(._.X.6 X % , ",
"@ X . + 6 6 q o.S.8 , 3 I T I 5 d f e ] ' D.S._ z e.].oXr x Y.} a J.*.U ].FX].6 u I T T I I B 3 5 3 , # # 6 | /.CXFX6X' 9 o , 3 ",
"w 7 7 q ) `  .~.A.8 3 I T T I I s d d f t ) +.@.l x O.qXp s 2.w.b ).D.F.8X4Xw $ 5 D I 3 3 3 , , , , , % X O q A.ZXHX<X] + , 5 5 ",
").D.| | A.K.1X_.` u I Y ^ T Y T I U d i i t c b c d b *X|.V U <.E P.~.D.(.G.$ 2 I 3 3 3 , % , % , , % # X   6 ` 1XVXG._ & 3 5 I ",
"L.J.!./.VXAXAX).] d U T T U T I D 5 3 3 a b c b :.n g =.eX%XR V E R 1.I ..' $ 1 3 , % % % % o % % % o o X   . w H./.| 0 < 5 I Y ",
"e _ ..K.ZXHXFXG.{ V T ^ T Y D 5 5 3 , c b c v R m M E ,.qXP.p.R V E R v ] ` & , , , o o o X o X % % o .       6 A.D.e $ 3 s Y I ",
"U u _ X.4XGXVXo.{ T T ^ T I s 5 5 , 2 l R m R R E E XXQ.qX@.%XP.m M E R M { $ % # o o o X   X X o X o X o o o + ' ) 9 , 5 D I I ",
"5 & 0 ` K.7XL.O.-.U T T I 5 5 s < x c b R { #.{ E $XY.;.t z @.Y.#X$.#.M V R d # X X X X o o X   X X % , , , % 6 w 7 , < 5 5 3 3 ",
"5 , 9 w A.^.X.t u 5 I I 5 s n x l c V 0.<.%.%.&.jX.XU M z z @.z E.E.$.$.E :.E d < X o o , o % X .   o 3 , % + w ' 8 % , , , , - ",
", , < y | !.) 9 < , 3 s c c n m :.m M &.@.N.i.$XY.3.2.@.@.z &.t { %X=.f.5.3.:.:.E r r , , % % o X X o o     6 D.A.$ - % , 3 1 , ",
"X o o p ) D.7 # % < 3 n m E -.E E &.3.4.B.hXSXfXN.N.$.$.%.@.e.%.q.=.$X&X;Xk.e.<.g m b a r r * r & O .     +  .4X..r r x a d 3 , ",
"X p 9.p t [ z r r n c m M { #.3.<.e.3.{ n c.KXjX:X@Xp.1.2.e.u.a.u.R.hXx.$XpXY.q.3.M M m n b c m b c l a r t P.g.z c m n c a p , ",
"j.M.j.<.3.2.<.1.<.#.W M #.4.#.<.1.%.@.5.0.v.l.7.Y.9XnXv.a.e.a.r.i.@XdXB.r.T.L.4.u.y.y.5.{.4.$.,.E E M &.<.@.&.>.#.W ,.$.<.4.n c ",
"j.9.@XN.V.6.n <.>.<.3.1.e.e.4.4.1.#.C.Z.lXr.u.|.|.hXmXeX&Xi.}.s.u.}.@Xu.v.nXlXl.k.y.r.7.@.r.l.N.,.4.%.5.V.j.9.b j.W 7.l.k.4.m m ",
"%.7.7.@.4.7.7.p.y.u.u.p.u.r.i.u.u.u.e.r.u.|.i.|.p.R.p.R.`.9X`.&Xi.|.r.u.z.dXXXl.}.+Xv.y.7.#.M 7.4.u.i.u.l.kXx.u.x.IXl.v.W <.e.7.",
"%.7.7.e.1.e.=.i.{. X{.k.y.y.{.{.|.{.z.i.k.e. Xi.#XjXv.z.@X].Q.eXk. XgXmX@Xs.v.a.z.hXlXhXi.a.a.r.e.z.|.{.{.}.v.u.C.V.mXhXu.r.t.e.",
"2.e.v.y.a.k.#XzX X|.k.|.y.gXi.{.k.}.i.{.l.u.k.{.OX'.|.}.=X9X'.%XwXbXzX#X#X@XgX@XgX|.|.z.k.z.}.i.u.}.{. X|. X Xs.kXlXhXhX{.R.r.y.",
"u.#XjXz.z.OX@X@Xv.{. X|.jXlXi.R.'.R.|.|.{.|.l.s.oX XlX,X9X'.oXcX#X;XwXiX%XMXSXMX,X,X&X XR.v.fX}.i.{.|.u.r.R.gXdXfXv.#Xk.@X@Xz.{.",
"zXrXuX0X;XbXNXxX'.$X$X'.{.'.'.;X;X&X>X=X*X=XPXMX0X=X=X>X$X$X*X&X#XcXgX#XvX&X%X:X0X[.:XrXtXMXLX%X-X*X*X:XrXMXvXrX$X%X#X*X%X.X#X X",
"=XuXtX%X*X0XwX=X=X:XcXqXpXqXxXJX&XrXyXuXpXiXMX2X*X%X0XtX*X=X=XrXqXNXPX0XzXxXiXyXuXpXpXtX0X*X%X%X=XtXaXpXtX>XbXbXPXxXKX=X0XwXPX=X",
":XyX[.*X*X&X0XtX:XvXKX&XtXuXKXiX:XsXyXuXsX>X,X=X=X*X&X0XtX=X&X&X&XMXPXiX:XzXLXMXuXuXyXyX:X&X&XyXtXuXyXyX&XbXbXUXxXyXrX&X&X#XxXsX",
"$X0X%X*X&XqXPX#X>XiXsXtXtXuXiXxX:X=X=X=X9X9X=X%XcX$XqXtXuXuXyXsXtXiXPXMXiX=XbXxX=XqX%XKXbX>X%XqXtX9X0X0X&X&XvXNXMXtXuXuXtXLXKXyX",
"mXOXz.k.lXmXV.OXOXOX@X.X|.oX*XvX:X*X}.+X&XR.k.mXIXa.v.f.z.OXOXoXlX;XUXmXKX;XxXv.$XnXlXz.R.p.a.c.+X-X.Xu.OX@XnXdXf.v.v.OX@X XzXUX",
"{ p.E.R.UXnX5.R. XoX X.XoXzXJXl.t.5.3.1.<.$.nXnX+XR.7.3.{..X&X@XmXKX#XR.t.t.2.1.1.dXv.a.E.W.W.3.2.<.1.5.UXUXW.f.t.p. XoXoX X.X$X",
"U U ~ 9.j.nX0.y.v.c.z.d.6.6.Z.B.V.E ^ Y ~ B.N.( ( 5.9.0.j.oXc.l.nXZ.Q Q Q Q R ^ 6.JX~ Q Q W 5.^ T Y U U 7.nX7.0.9.d.a.v.l.f.9.W ",
"V.kXl.T ( JX9.k ~ 6.+Xx.8.( ( ( M.P ( c.Z.x.z.l.! ~ 6.j.I Q 7.+XC.9.( P / L L ( h.j.d.s.x./ 9./ 9.j.0.y.|.nXM.6.~ k Q ~ OXv.d.0.",
"C.C.kXB.v.JXQ S S A S ~ t.OXc.6.( S 0.c.A 7.7.x.8.x.6.Y S Z S Y ,.7.|.l.6.T F T F Z 7.0.d.8.S I T / M.C.hXJXN.0.~ F S S j Q k.c.",
"C.b.Z.IXc.N.9.^ ( ! D Z Z G G Z m.M.f.! ( c.N.( j.Q ~ 9.6.h.( G Z Z Z Z Z Z H ! J / j.x./ h A G G m.IXIXC.B.8.6.6.( ( ^ k m.x.J ",
"d.0.l.e.<.z.y.v.8.6.6.( L J P P L ( x.fXl.d.U C C C C j D Y M 3.I D ^ ! P K ( v.+Xf.d.U C C C S ! T 9.0.f.l.#.l.y.v.0.,.6.( ! J ",
":Xw.z j ; l l &.&.R ~ j.j.j.0.0.j.9.9.d.n.N.f./ h h j j ; j j 2 j j 0.d.0.0.9.9.0.x.N.N.9.N.0.q.W.fXW.w.%.2 j j r c &.W ~ 0.0.x.",
"iXT.R.=.l l n l k x * D b m 5.6.T.T.n.d.R.+X+X.X}.u.4.; ; n ,.z r l Q Q W ,.8.U W W 7.4.t.T.T.T.W.T.%X}.9.W Q Q W I I I k Q 1.W.",
"P.n l t l l z 5 1 W W 7.4.v.OXQ.L.$XP.%.F.W P.&.&.v j ; = = = = ; * 1 5 1 ; &.5.p.OX+XT.E.L.Y.P.+.w.@.@.Y b Y 9.0.0.d.0.0.T.L.Q.",
"x j j 2 * * r * #.x.f.z.+X.XwXwXeX%Xv x 5.m 1 ; j 1 , 5 j S k a 2 * 1 1 ; 4 7.y.z.i.&X.XQ.%X%Xx I 5 x x x j x U *.p.T.N.Q.wXeXwX",
"5 4 1 5 k 5 z @.=.w.=.T.9XY.yX:XXX@.6.R k 5 s p a g d d p u h 5 Y F G j S k A 5 4 5 3 2 : 1 2 5 c c k j * F U 1 +.p.9XQ.uX:XoX%.",
"a , , . u z.E.Y.Q.$X-X.X:X'.k j 3 3 1 4 = ; = = - 5 3 u r.q.b s s U U g s a p , % o , % # , u p 3 % , 1 , 3 3 * r j XXoX4 1 3 7.",
"m W p r u { f [ %.%.& , 4 j 2 * , - 1 =   3 5 D 3 s , 4 > = = ; ; ; ; ; - % W R r r r a a z f a & 3 1 * p , % 1 ; o . 1 I D & p ",
"= = = = ; X ; * x v a l m ! h = 5 # 3 u < v , = = = = = = = X = A Z k j ; = = = = ; >   ; 2 Y x r a Q H > 1 5 % 5 u s s % = = = ",
"F v d U s m I - $ & o %   $.%.Y k % , , - > 3 #   o j > A A A L L L A > > G Y k m b v U Y D 2 & % j , e.c Y 3 % 3 , N % > D N X ",
"p 1 2 H b F s.5.4 > > A ; > u g 7.s.A G Z Z A j F G J G J A F P ! H H v g b 2 , s S U ! F H 4 j G J = , a f f.d.S N Z N H W t.f.",
": C : D S 4 k =.( Z C A > = h > i >X%Xf.~ ( ! L P Z G F k F F k Y b b k * X h h h D h F j 7.G J Z H X : f t =.tXQ.#X$XW.9X:XR.+ ",
"Z J P P P S Z C C : Z G L P P P P H K Z L Y L P G P / J G / Y F j > h C : G G H L ! > A v 9.h.%.1.,.R =.*X0XsXSXsXtXiX! H S S L "
};
