/* XPM */
static char *b75c13261631408cc8b1aa73d31ea1b90WG3MFmPky5OzBuS[] = {
/* columns rows colors chars-per-pixel */
"64 64 240 2 ",
"   c #050404",
".  c #0B0504",
"X  c #0B0807",
"o  c #090708",
"O  c #0C0C0C",
"+  c #140404",
"@  c #1B0403",
"#  c #120806",
"$  c #1C0807",
"%  c #190708",
"&  c #130C0B",
"*  c #1B0C0B",
"=  c #13100F",
"-  c #1C100F",
";  c #170F10",
":  c #141313",
">  c #1B1413",
",  c #1A1817",
"<  c #1C1718",
"1  c #171818",
"2  c #1B1B1B",
"3  c #240403",
"4  c #2B0303",
"5  c #230806",
"6  c #2E0807",
"7  c #260708",
"8  c #240B0B",
"9  c #2B0B0B",
"0  c #330304",
"q  c #3C0404",
"w  c #360708",
"e  c #330B0B",
"r  c #3C0C0B",
"t  c #23100E",
"y  c #2B110F",
"u  c #270F10",
"i  c #300F11",
"p  c #390F10",
"a  c #241413",
"s  c #2B1313",
"d  c #281817",
"f  c #231C1C",
"g  c #2B1C1B",
"h  c #341413",
"j  c #3C1414",
"k  c #331816",
"l  c #331C1C",
"z  c #3A1D1C",
"x  c #1F201F",
"c  c #23201F",
"v  c #2B201F",
"b  c #1F1F20",
"n  c #261F20",
"m  c #232323",
"M  c #2B2323",
"N  c #2A2A2A",
"B  c #332423",
"V  c #392222",
"C  c #342C2B",
"Z  c #3B2B2A",
"A  c #353030",
"S  c #430303",
"D  c #4C0303",
"F  c #450807",
"G  c #4D0806",
"H  c #4B0708",
"J  c #440B0B",
"K  c #4A0B0B",
"L  c #540303",
"P  c #5B0303",
"I  c #580807",
"U  c #530B0B",
"Y  c #5A0B0B",
"T  c #5E100F",
"R  c #460F10",
"E  c #451414",
"W  c #441C1C",
"Q  c #491818",
"!  c #541313",
"~  c #5B1514",
"^  c #551916",
"/  c #640303",
"(  c #6B0303",
")  c #630905",
"_  c #6D0C05",
"`  c #600708",
"'  c #640B0A",
"]  c #6B0B0B",
"[  c #740303",
"{  c #7B0303",
"}  c #740B05",
"|  c #7A0A03",
" . c #740B0A",
".. c #790B0C",
"X. c #6A1206",
"o. c #781603",
"O. c #7B1304",
"+. c #6E0F10",
"@. c #641312",
"#. c #691616",
"$. c #721717",
"%. c #571E20",
"&. c #482727",
"*. c #5E2A2A",
"=. c #4B3332",
"-. c #682222",
";. c #722827",
":. c #840303",
">. c #8B0303",
",. c #840C04",
"<. c #8C0C03",
"1. c #870A09",
"2. c #930303",
"3. c #9C0403",
"4. c #930B03",
"5. c #990D04",
"6. c #97090A",
"7. c #871706",
"8. c #8B1204",
"9. c #941204",
"0. c #9C1304",
"q. c #951C03",
"w. c #9C1B03",
"e. c #991D0C",
"r. c #8D1715",
"t. c #931611",
"y. c #A30303",
"u. c #AD0403",
"i. c #A40B03",
"p. c #A90E05",
"a. c #B30503",
"s. c #BC0302",
"d. c #B50A03",
"f. c #BB0D03",
"g. c #B10F0A",
"h. c #A31403",
"j. c #AB1303",
"k. c #A71A07",
"l. c #AD1A03",
"z. c #B31404",
"x. c #B81903",
"c. c #BC1C03",
"v. c #882303",
"b. c #9B2204",
"n. c #982704",
"m. c #9B3403",
"M. c #A52704",
"N. c #AD2404",
"B. c #AC2B03",
"V. c #B12403",
"C. c #BC2703",
"Z. c #B52D03",
"A. c #A93505",
"S. c #B23403",
"D. c #BB3303",
"F. c #BB3D03",
"G. c #B83906",
"H. c #AA2F13",
"J. c #C40403",
"K. c #CC0603",
"L. c #C10A03",
"P. c #D70702",
"I. c #C41303",
"U. c #C61703",
"Y. c #CB1C02",
"T. c #D41403",
"R. c #D91802",
"E. c #E30802",
"W. c #F10E01",
"Q. c #E61B02",
"!. c #F41901",
"~. c #C52603",
"^. c #CC2C03",
"/. c #D12403",
"(. c #D62A02",
"). c #C33B03",
"_. c #C73803",
"`. c #DB3302",
"'. c #D63803",
"]. c #E62902",
"[. c #EE3601",
"{. c #E43B03",
"}. c #EC3B02",
"|. c #A84103",
" X c #B34202",
".X c #B94A03",
"XX c #BA5704",
"oX c #C84703",
"OX c #CD4C03",
"+X c #D64903",
"@X c #C95704",
"#X c #D55502",
"$X c #D35D02",
"%X c #DD5B02",
"&X c #E54703",
"*X c #EC4003",
"=X c #EE4C02",
"-X c #F14902",
";X c #E55303",
":X c #E45B02",
">X c #EC5B02",
",X c #F35702",
"<X c #C96C03",
"1X c #D46503",
"2X c #DB6402",
"3X c #D46D02",
"4X c #DB6B03",
"5X c #D77404",
"6X c #DC7903",
"7X c #EB6302",
"8X c #E86702",
"9X c #E36903",
"0X c #F36803",
"qX c #E27503",
"wX c #E87903",
"eX c #F27B02",
"rX c #D98703",
"tX c #E88603",
"yX c #EC8C03",
"uX c #F48302",
"iX c #FC8002",
"pX c #F38C03",
"aX c #ED9303",
"sX c #EB9C03",
"dX c #F39503",
"fX c #F89802",
"gX c #EBA303",
"hX c #F4A303",
"jX c #F6AC02",
"kX c #FBAB02",
"lX c #F6B403",
"zX c #FCB603",
"xX c #F6BD02",
"cX c #FBBC02",
"vX c #FBC402",
"bX c #FCCB02",
"nX c #FDD402",
"mX c #FDDB02",
"MX c #FEE102",
"NX c #FEEC02",
/* pixels */
"s.P + O o o o & - > - = o + [ 5.* 8 e P i.8.P S L ( <.Z._.`.].y.5 & 2 2 b 1 : 1 f p u.{ U Q h * o   X O O = 3 N.S & : O # 4 { j ",
">.2.@ o o . + 8 h 9 8 * # 3 .XqX:.S 6 6 $ # o o . @ 4 q q [ T.2.$ = : 1 2 1 : 2 n E z.^.7. .Y w 3 @ @ 3 $ 5 n.1X0 5 - * 3 P r g ",
"F I.0 . . + 3 w K K r 0 q { tX6X1.e ; = = = O O X X . . . + P [ @ O 1 1 1 : O : a ! ).zXjX9X~.a.[ / 2.B..X~.`.+Xj.3.| _ 5.[ t 2 ",
"3 S.n.3 + 3 q P _ } [ [ a.P.z.R d 1 : 1 : : : : = X         @ P 3 O : 1 : & o o 3 P 8XnXmXpX/.3.P q / A.yXD.E k j ' U.uXwXF & 2 ",
"@ v.9X} 0 q P 8. X@X+X}.Q.<.z M b b b 2 1 1 1 : : O o   o   @ ( 4 # : = O O   o 4 3.-X2XXXe.+.R 8 * % 3 | 1.s m f 9 w.kXsXS & : ",
"+ q.+Xj.[ >.p.#XjXnXkX;Xr.&.A N m b 2 1 1 1 1 : : = : : O o @ 2.:.@ = = O o . @ / a.1.$.$.#.W s 1 1 O O 6 >.K > 8 [ f.b._.3.7 & ",
"4 d.' e q L 4.9XmXNXdXt.*.=.A m 1 : : : : : : 1 1 1 1 O o   3 J.K.( 4 * $ @ 3 P 2.R W &.&.&.M f 2 2 = O @ P i.J 0.3.e 8 6 2.L $ ",
"{ { s f d e G 0.jXlXM.-.=.A M 1 : : : O O O = = O O o     o ( g.^ Y.( F D D :.s.J g C A C C b x 2 2 : = O 3 w.yXF.h M 2 a F y.S ",
">.9 1 b M g E I ;XS.@.&.V n < : : = = = o O O o         . 4 @X;Xl.,X:XZ.V.+X{._ k m N m b 2 2 x 2 1 : : O # S OXU d m m 2 s >.c.",
"G * : 1 x f a q i.U k l n 2 1 : : : : O O O o         @ D j.A.) 4.>XkXbXbXfXN.R g m 2 1 : : 2 2 x 1 : O & o @ :.P * f m 1 = q :X",
"L & O = : : & 4 [ 9 > < < 1 : 1 1 1 1 = o       + 3 0 P { L t 8 S w.hXNXNXtX .E n m : : : : 1 2 2 1 : O O X . q [ w s s & + G aX",
"[ q 5 & X & + q L.L & : : : : 1 2 1 : O     # 0 D D q q 7 * O = 6 ` $XmXnXF.' j n 2 : : O : : 1 2 1 = O O o   4 :.[ Y K q P ^.uX",
"2.x.| q 3 0 / Y.iXB.@ X = = : 1 2 2 : O + 4 :.2.( q 7 * O O O o $ F 1.uXeX{ K k g 2 : : O O : : 2 1 O O X o o 6 ( ^.M.4.i.L.5.U ",
"k.cXeXL.[ P P ,.<X:X( + o o : 1 2 : * 7 O.'.Q.2.0 8 1 : : o O o ; y H )._.G 6 a f 2 : = : O O : 1 : : o   o . 4 ( 4XbXpXU.U k v ",
"C.yXoX .6 @ + * 6 d.u.4 . o o ; > w :.OXjXpX0.7 d N 2 1 O o o O ; a s { h.0 & > 2 : : O o o O O : O O O O O . 3 / oXbX1X] j v N ",
"i.$.^ V , O O O * S { L q L [ 1.y.s.T.7XjX|.7 < N N 2 : O O O O : 2 < q >.4 O : 1 1 = = o   o : : : O O & : O + S 5.,X<.E g 2 m ",
"z C A m 2 : : : : 9 q S L >.{.hX`.#.y ` ^.w ; m N N x : O O O O 1 2 , q 2.q $ - : : : = X     O O O : : : : O   3 { P.K s f x x ",
"N N N m 2 1 : : , - 0 4 q 8 ' 2Xe.M : ( 2.5 2 M N m x : : O O O 1 2 y L /.{ D 8 : : O O O       O : O : 1 2 O   + / y.e > 2 2 1 ",
"M N m b 2 2 1 1 1 : 7 0 q f M ~ 1.a F J.[ * m m x x 2 1 = : O o = < r [ pX6X{ q & O O O O       O O : : 1 2 o   + :.u.5 = : 1 : ",
"m N m n 2 2 1 1 : & $ q F M N g U >.+X,X/ > b b 2 1 : : : O O O = - w :.xXnXF.L @ O O O o o     o o : O : 1     3 V.l.3 O = : : ",
"b b m b b 2 1 1 = O + L / d m 2 a 6.fXdXI - 1 2 1 : O O : O O o o & 6 { 7X@Xc.2.6 . o o         o O O = : :   + S tX X@   O = : ",
"2 2 b b b 2 : = O o + ( >.- 1 1 1 8 Z.}.L ; : 1 : O O O O : :       3 [ p.-.-.] ( 3 + # .       o O O = O o . 3 D.gX.X3 X O : 2 ",
"2 2 2 2 1 : O O o   @ 4.x.* : : : & H J./ 9 t > : : o o o O : o     + [ $.&.V l K >.P q 3 +     o X o X O @ 4 3.h.I 0./ @ o : 2 ",
"1 1 : : : O o o     @ F.6X6 O , < 8 0 3.2.F 9 - : : O o   o = =     @ / W M 2 : 6 2.`.N.( q @ + O + @ 5 6 / >.[ k d r u.P @ : 1 ",
"1 1 : : O O X o   . 4 2XjXb.@ , a e S 3.T./ F 6 - = O o     : O     3 P z f 1 : 8 ` qXbX8Xc.[ L [ <.M. X`.s.K l v x 8 ( '.7.0 8 ",
"1 1 : : : O X o   + { [.=XQ.{ S r L { OXpXB.] R s a 1 : O : =       4 ( s : = O * P @XvX0XU.{ P 3.{.kXxXB.e a < 1 : & 4 qXvX3Xh.",
"1 1 : O O O o   + q >.2./ S S P { L.=XvXMXqX,.K h a 1 1 2 : o     + / 2.8 O O O $ L U.l.] J 8 8 8 G @X4X6 * : : O : % / 9X5X.Xz.",
"1 : : O O X o . 4 L S 3 # & % 7 S ( V.aXmXyX,.F 9 & & o X X o     3 u.I.9 % # 3 D ..@.Q k < 1 : : 8 r j.2.6 8 $ 8 e F s.{ 4 6 8 ",
"O O = O o o . 3 L D 3 O : : : > 9 F ( b.#X=X[ S 7 + # % # o o   @ S T./.M.) I 4.{ j B n n b 2 2 2 1 - 9 ( ( P F I [ L.3.7 O O = ",
"o o o # % @ @ S >.0 * 1 2 2 2 < a h K P [ d.>.S 3 @ 4 4 6 3 . . 4 >.t.B A.jX#X_ y f N N m m m b 2 1 : & $ 0 >.R.#XyX,XP 3 X = : ",
"3 % @ 3 q q D a.3.9 : 2 N N N b d g h j F P :.L S D L L D q 3 3 ( R...^ 1XsXX.8 2 N m b b 2 1 1 1 1 : O o $ q h.kXMX$XY 5 O 1 2 ",
"_.:.D P ( >.~.}.[ u 2 N N N N N N f g g s h S P { >.0.A.8.( P 2.wXfXQ.h.OXB.7 1 b 2 1 1 1 : = = : : = O o o 3 P $XfXk.K - 1 2 m ",
"V.a.K.R.wXlXzX+XU g N N N N m N m 2 2 1 > : 8 r ( J.=XfX;XK.3.K.0X0Xr.f ' ) * 2 1 1 : : O O O O : : O o X   . q p.].` e > 2 m N ",
"h p Y 5.pXNXbXV.! M N A A m b b 2 1 : = O X O 3 G | +XzX7Xr.~ J ' y.l c U P * : : : O O o o o o O O O o o o   3 { 2.e - 1 c m m ",
"M > e / F.kXwX..W B N N N x 2 2 2 = O O X     . 4 L { $XD.;.&.d d q r = I [ 8 O O O O o o o o o O O O O O O O @ D q * : 2 x b x ",
"2 > 7 S :.-X5.! l M N N b 2 2 2 1 = O o o       + 4 S :.g.*.Z n : 8 P L >.d.q & O o o o O : o o o o O 1 1 : = 4 S 3 = 1 , : 1 1 ",
", 1 > 6 L P.` 6 - : 1 2 b 2 2 2 1 : o o X o o o . + 3 S 2.&.n : X & q K.[.-X| q & O & = = : O O o o O : o o @ [ { 5 = : : 1 : : ",
"O O O a J y.q * ; 1 1 2 2 2 2 2 1 : : O X   o       . 0 ` l < =   & r f.iXzX4X_ e ; : : = : O O o         + D %X| & = : 1 2 : : ",
"X   O < r [ 4 O = : 1 1 1 1 1 1 : : O O             . 0 S k 1 O O : j 5.fXmXmX9Xw.I 6 8 * + + # X 3 4 4 4 P _.dX7.% O : 1 2 1 : ",
". o X * D ( 3 o O = : : 1 1 1 1 : : o               + q w d 1 O : 1 h [ 0XpX@XM.h.y.{ P L L L S D / { <.p.a.| 9.>.@ o O = : 1 : ",
"0 4 3 4 { { 3   X O = = O = : : O                   3 S 0 > = = = O % D ].:.K e 7 7 4 4 4 q ( 2.^.aXxXwXh.Q l J u.4 @ o O O O = ",
">.[ { y.P.2.@       O O O o                       + S P 8 & = : : : & q y.j a : : : : & & # @ 4 / 3XnX1X#.Z M K }..XX.0 7 @ X X ",
"4 S [ K.!.4.+       o O O O                     . q 3.( 3 X = : : & + D ( g x N N N N b 2 O o # q [ :X_.%.M f Y -X6XB.2.P L q 3 ",
"& * $ 0 h.l.3 .         O O o O   o         . @ q d.E.3.6 @ O O = & 4 y. .d m N N N m 2 2 : O O * q { I.r > 8 ) f.H 9 9 r { R.'.",
"= O o + q 2Xv.3 @ + . . X X O X X X o     @ q P Z.(.f.3.>.[ 0 8 5 q S.0X) d c m 2 2 1 2 1 1 : : : > e 2.2.0 0 [ K l 2 , < 9 7.pX",
"X o   . D xXxXOX0.{ S 3 @ O o o o X o   @ S :.$X4X! B v 6.,X1X3.{ /.fXgXG 1 2 2 2 2 2 2 , 1 , 1 1 < > w U.%X'.1.V N N m 1 & 6 XX",
"      + O.aXXXb.4.3.2.:./ 0 @ # O # @ 3 S 3.*XkXwX@.s > 6./.7.#.Y ] 8._.0 1 < 2 2 1 1 1 1 2 1 : 1 1 : $ 7.jX1Xj M N N m 1 = * L ",
"o     3 B.B.h a a 8 6 P s./.q.( D L L P :.a.Q.>X}.a.G 6 ( R V C g < 9 :.q > 2 2 1 1 1 1 1 1 2 1 = = O . 4 '.<.8 2 m N 2 1 : : 8 ",
"      4 L.! M m 2 , : * q _.hXhX&XJ.[ H H K I ( / y.u.:.K l m N 2 < r j.:.e < 1 1 1 : 1 1 1 2 x : = o o 3 3./ * , 2 2 = = 1 : 8 ",
"    + / :.a m m 2 1 O O + I hXrXX.e s a a a s 9 w D 3./ s , 2 2 f k ] 1X$X/ s 1 : : : : : 1 x m 1 = O o 3 a./ * 1 2 : 1 = : O 3 ",
"  . 3 { 0 = m m , = O o . S &Xo.a 2 m m N 1 1 & # 0 :.i < 2 2 > s G ~.vXbXZ.J > : O = : : : x m 2 = O & q `.[ & : : : 2 < o + S ",
"+ 3 >./ * : n m : = O o # L s.6 : b N N n : : : & D ] a 1 1 & 6 { J.l.G. X(.i.p > O O O = : x x 2 1 ; 8 m.dXo.% X = 1 < > + 4 y.",
"D Z.C.6 : 2 2 2 : O X o + P ( 5 1 b N M 2 O : 1 a  .` 8 > * 7 / :.D J ! ! ! i.{ 0 @ X O O = = : 2 1 8 _ tXxXS.4 7 8 y j p q 5.!.",
"yXdX_ * = 1 1 1 : O X   @ / w > 2 b m 2 1 : , 2 k k.oX7.} <.u.{ 9 > f M Z A z D S q 3 + % % O o ; y ' f.M.O.} :.>./ U _  .8.-X].",
"nXrX3 X & : : : O       3 { 6 : 1 2 2 1 O O : & w /.H.A.uX&X>.9 2 m N N N M f s w / { D D F 0 3 0 q L r s v d s L y.Y.$XrX:XN.L ",
"dX.X3 # * ; & & = o     4 :.3 O : : : : X     @ [ P.V E ;X8.e f N M m N m m 2 , * q u.'.oXM.>./ q 6 u < m m b < y K l.hXlXb.G 8 ",
"7.c.D w r p i a 1 = O @ ) 7.@ O O O O   o   + q K.W.l.1.{.} j a 2 b 2 m m b 2 : O * F F.bXaX4.F u , 1 m N x 1 : = 6 / ;XF.+.h < ",
"7 [ s.2.[ ] U r a - 8 K <Xm.@ # O X : : , 5 q >.J.T.-XpXkXw.K u 1 2 b m 2 2 1 : = & w [ 4XF.T k 2 1 1 b N 2 : O X % q f. .W B m ",
"* w :.].9XoX8.` F G { h.|.Z.9.S 9 s s a y 0 S D 0 H | 1XcXF.I 8 : 2 b b 2 2 1 : O O % S 3.2.r < 1 : 1 2 1 : = O O   4 2.p M N 2 ",
"# 6 P F.vXnX0Xf.[ D 3 3 3 q ~.}.OXA.9.:.P q 6 - : s U 7.S.l.G % ; 2 2 b m 2 1 1 : O   @ / 3.9 O = = 1 1 1 1 = O o o 4 / s 2 N m ",
". 3 D 9.jXxXZ.I w * X     + / 7XvXzX,Xa.q t f m 2 f h J P >.q % = 1 1 1 2 2 2 2 1 O X X q f.4 # o = 1 1 2 , = O . + L L * 2 m m ",
"  + q ( ;XD.@.R a : = O X o 3 D.kXdXM.6 a b m m m n f u e [ q . O : 1 1 1 : 1 1 : : O o 4 oXv.3 o X : 2 2 : O o   3 2.F * 2 2 b ",
"  . 3 ( T.@.W l f 1 1 = O   + :.=Xq.7 : 1 2 2 b b n 2 : * q P + O : 1 1 : : = = : O O o 4 rXgXO.3 @ & : & o   o 3 } R.w & : 2 1 ",
"&   @ ( } W B c x 2 : = O   # ( a.3 . O O = : 1 1 2 1 1 = 7 D 7 O O : : : 1 : = O O O # D sXbXeXc.:.S 6 3 @ 3 4 v.wX+X3 X O : : "
};
