/* XPM */
static char *result[] = {
/* columns rows colors chars-per-pixel */
"64 64 87 1 ",
"  c black",
". c #070707",
"X c gray3",
"o c #090909",
"O c #020202",
"+ c #010101",
"@ c #060606",
"# c gray2",
"$ c gray1",
"% c #040404",
"& c #0C0C0C",
"* c gray4",
"= c #0B0B0B",
"- c gray5",
"; c gray6",
": c gray23",
"> c gray7",
", c #101010",
"< c #323232",
"1 c gray18",
"2 c #0E0E0E",
"3 c #111111",
"4 c #131313",
"5 c #2C2C2C",
"6 c #1B1B1B",
"7 c #232323",
"8 c #414141",
"9 c gray8",
"0 c #161616",
"q c gray16",
"w c #373737",
"e c gray12",
"r c #151515",
"t c #252525",
"y c #282828",
"u c #202020",
"i c #181818",
"p c #353535",
"a c #2A2A2A",
"s c #191919",
"d c gray26",
"f c #222222",
"g c #393939",
"h c gray15",
"j c gray19",
"k c gray14",
"l c gray10",
"z c #1D1D1D",
"x c #3F3F3F",
"c c #343434",
"v c gray22",
"b c gray11",
"n c #818181",
"m c #1E1E1E",
"M c #2D2D2D",
"N c #898989",
"B c gray9",
"V c gray29",
"C c #3A3A3A",
"Z c #272727",
"A c #3E3E3E",
"S c gray24",
"D c gray28",
"F c #464646",
"G c gray13",
"H c gray17",
"J c gray25",
"K c gray36",
"L c #313131",
"P c #676767",
"I c gray31",
"U c gray47",
"Y c #6F6F6F",
"T c #7B7B7B",
"R c #6C6C6C",
"E c #E7E7E7",
"W c gray39",
"Q c #2F2F2F",
"! c gray20",
"~ c #EAEAEA",
"^ c #4C4C4C",
"/ c #5F5F5F",
"( c #585858",
") c gray32",
"_ c #434343",
"` c gray45",
"' c #484848",
/* pixels */
"    + +          +O%%%O++           $#@#$                       ",
" +                 +++             ##$##%                       ",
" ++                                 O@@@O                       ",
"++O      +OOO+                    %#@#@@                        ",
"++       $$$%%+++$$O +%          O#++#@@                        ",
" ++       +O$%#@@%%$ +#@@#         +#X@@                        ",
" +   OOOOO   +#@.#%@@@.%$$         OX*XX                        ",
"    O$$$$%     %#X.@@@.oO      >mO.@O@..                        ",
"    ++  +$$$OOO%##@@@@@X@O    oH1m   @@.                        ",
"        O##@XX.@O+O$@...*X   ;!!Lcu  .Xo                        ",
"  OO$    %#####@  $......O  ;jHb9hLu$oXo$                       ",
" +O+O   O%%####.%#.X+%.X@+O%BM9<<ZGM*Xo*.                       ",
" O$     O&49@##.oX@@+Xskccv0wZQp:Qh!7jw!Hb          =>&O       +",
" ++$%%$ O4 b6##X.@O+t55h1LsZm1=Q:0j&HoHHHqHy       2G.2#       +",
" O%%##@+ 4 bqb...#eqZtBHBla<2,Lvvwe Q>qi7mekqZX   @7t.2@      +O",
"+%$$%O   r e5H;@@O   3kH5fhw, r!6c  !,yHy7t       khqo,.      +O",
"$$$OO    r eayib%     hBGc i1 @jS0 lH+th4y      .bkuqo,.      +O",
"+++    +$0 uh16<r  > 0<w%;6 09 o> %u.XlXf!5 *2  hGktto3.       O",
"$$+    #@i 7y<mva GLh>Z:  #O        O   yLBGf!oBjkZyZ*>X        ",
"$%+   ##%B 7y<m<< jhHpue  @+   O+   %+O 9rcLlp3fMkZyZ*>X        ",
"O+   O#$ i 7HLmQ< ZyttrOX% $XXO#%  O-&*+ #kZ6j&7Htyya*4X        ",
"     +#+ s t<QuLc e6k,9+@2%%oX@ O  @2&-% #z>yiXkMyHhj=9X        ",
"         s t<Qu<c  wbGo+#-%$$%+   %%2;&oO$s0!h kMyHhj=9X        ",
"         s tp!6wgl0Qp3$o#$=%  O@  X&->X2-X 1uZztvm5HL&9o      +$",
"     O.+ l hgg3Qp1qBl@@9&o++  +.+ +42;=2-= 02><up M<<&9o     $%$",
"     $.+ l hga$Qj1_fe+.;;;   + +X %=,,&2;X$ Lqw6! -<<&9o    +#$$",
"     #.+ 6 GCLoGaQD;2+@&;;@#+O O&XOo,&.#@+  sMglZ m!Q*ro    %%$$",
"     #.+ 6 l::>  Q'  +.&=-,=o   $*#$@$%+     1C   Qc5@0*   %%%%#",
"     +%+ 6 l:<eQ*#<  $-,3-94-  +  OX+ +++    Z9 baec5@0* +##%%%%",
"         6 l:<ugq    .23,-00. +oOO%-@ OO$      B1Hmc5@0* ##%%%+ ",
"    +.O  6 t!<uap O $$X,&@%*$  X;+ #X    $   ++qkHeLM&0*$##%%%  ",
"    #@$  6 qQ<uafLV O+O $ +$+>-@o%   %@ +O++ Q:llHej1-0*+##%O+  ",
"    +@$  6 qQwfaMLV $     *#$li;;    @o$+$++ QCfeHZj1-0* +#O    ",
"     %O  6 qL:zmp7_  + %  $#=499r#+  +O+     Q1qGuQjQ-0*        ",
"         6 f:gl6pe_ +o++   @4BBBe3.+ OO+$+ + QHqGbHpL*0*        ",
"         mZZM<bkpm8 +X+O  #%07bmGe3=Oi=@o$ O QayfhmQkhu*        ",
"         mqq1H7qLMD     + $O4eHQyl93=B3*#    1vhfHMmMyG*        ",
"         eQ1jakq7Q_ O +%=$==>0Hjt4>3=2;;.%   qgllHQbL1k*        ",
"         m111q7y11g 2@oo;2>0>>lker3&-&o,;&$  zw7ua16jMfo        ",
"         zkk1yls!5g +2;,,,&0B>3ri92;>*;=;2.O ecZe6M6H7mo        ",
"         m5j1ymu!zx %-2,,099sl-2*,@X2342---OOMqZufM6<HGo       +",
"         l&9k!uhjb: *;4isyszue-O $+ @902..&O+aZtuyHki20o       +",
"         s tw56t5eC+XBsz1M1kemk.+   %@rr&%   ZqfmyBjj=9X       %",
"         s tcmitqHp+9lzt5ajaf762%   O+X22&O  6<eby Hj=9X       %",
"         B 71r;sMy<+3rmqHHM5y6r>X$   @;&>*%  sQfb6 k1*>X      $%",
"         B f<Gl0My7@3s6fHH55akB3;=@%%&-=X=-o+ Mf6m=MM*>X     O%%",
"         B 6Ql50M04O,46hqH55atr;;.$@$.2;oX-o$ sf6abyq.>X     $%%",
"         r 9a9h4%  %.&,zkZkkZm43o%%OOO*&.=*.   O@tif7#3.    +%%%",
"         r e1m   9lO*&&>uGkGbs42,@$  &=X$#%O =s    qqo,.   +$%%%",
"         r ey&  fkM+@=&,0bzzii;*%$@  %%+     BHs3  bqo,.   O%%%%",
"         4 bf.kaHuq+OX=&-,rB3&X*OO%      +  +rZbqZ9Bt.2@  +$$$$$",
"         4 bh6hHHuq  +%@=X*2-*#O$O      +$O +9h6aZ077.2# +$$$$$$",
"         4 bZ4ZZquq    +@$%+%%            +  9h6kqBet.2#+$$$$$$$",
"         , 0z3mfkBm+%#OO%O@$@$@%O@$@$@%O%O$#+2bief2sb#&#$$$O$$$$",
"         , ;74Gmm$$#@@@@@@@@@@@@@@@@@@@@@@@##%$9bf4z6$&.$$$O$$$$",
"         , ;G;l9&###@@@@@@@@@@@@@@@@@@@@@@@####X2l2l6$&.$$$O$$$%",
">2#&#%%-%09i6-9o&o6&bfff=f*>*u3lhhtouX3*sr,uue=r-=#r0.94;@X##$@*",
"ze;=ii63;meekl>uH5tbQjj<ZeuvwMipppp1m4w!5BQMMHt4;htz-blli9.$,,3.",
"46i=z0iBX444u7rZtZM;ezmyL>cjjp-kuGa<e!111iG6buheeGGz44;,3>2*;;,o",
"*2.$&o@&O%$*32#>4-iOX%,00$0l>z$o%;0l#4s>B&X%&>9#=>2-*%O%ooO$@###",
"$%OO#% $+OO$%$%.* .+$%#@##o;Oo+%@#@@#@2O#$$%%#%$%o%O$O$OOO++O+ +",
"$#$OOO+OO+$$@@%$$O$%+%#Xo@%#$%#$%@o*X%%$O%$$#@.@$$$+$O+$$$O+++ +",
"#X@$ +$#O  #==. +.-$+ o,3; O@,#+ X3>3 +#-@O #&&&$+O.%+ +#%%+ +++",
"$$OO O##+ +%### O-2+ +.X.= +,,O+ .oX* +22#+ #.#@O .X%+ +$OO+ OO+"
};
