/* XPM */
static char *aab908d261554c8ed4465590f10eb78bP38udSvsdU6XNEPZ[] = {
/* columns rows colors chars-per-pixel */
"64 64 246 2 ",
"   c #050505",
".  c #0B0504",
"X  c #09080A",
"o  c #0C0C0C",
"O  c #140404",
"+  c #1C0404",
"@  c #170708",
"#  c #130C0B",
"$  c #1B0C0B",
"%  c #071706",
"&  c #19110E",
"*  c #050B11",
"=  c #0C0D11",
"-  c #180F11",
";  c #0E1216",
":  c #141314",
">  c #1B1313",
",  c #17181A",
"<  c #1B1B1B",
"1  c #240403",
"2  c #2C0303",
"3  c #230B0B",
"4  c #280808",
"5  c #2B0B0B",
"6  c #330404",
"7  c #3C0303",
"8  c #350708",
"9  c #330B0B",
"0  c #3B0C0C",
"q  c #25120E",
"w  c #340E10",
"e  c #241313",
"r  c #2B1313",
"t  c #241914",
"y  c #231C1B",
"u  c #2B1C1C",
"i  c #341413",
"p  c #361A18",
"a  c #1D2C1C",
"s  c #26201E",
"d  c #352619",
"f  c #37331D",
"g  c #1F1F20",
"h  c #261F20",
"j  c #232322",
"k  c #2B2423",
"l  c #2D2A23",
"z  c #2B2B2B",
"x  c #362927",
"c  c #293529",
"v  c #3B3627",
"b  c #3A3635",
"n  c #440303",
"m  c #4C0303",
"M  c #480B0A",
"N  c #4B0F0F",
"B  c #540303",
"V  c #5C0303",
"C  c #560A0A",
"Z  c #471817",
"A  c #571817",
"S  c #640303",
"D  c #6C0303",
"F  c #680B09",
"G  c #740303",
"H  c #7B0303",
"J  c #770C08",
"K  c #6B1106",
"L  c #7B1504",
"P  c #671A18",
"I  c #781D19",
"U  c #492A1E",
"Y  c #6F211E",
"T  c #78221B",
"R  c #571E20",
"E  c #492825",
"W  c #5A2826",
"Q  c #4A3528",
"!  c #563728",
"~  c #473A36",
"^  c #563B33",
"/  c #673C28",
"(  c #354E34",
")  c #484427",
"_  c #554632",
"`  c #594535",
"'  c #69432B",
"]  c #75442C",
"[  c #6C5B2E",
"{  c #674935",
"}  c #774C35",
"|  c #77523A",
" . c #78652D",
".. c #484747",
"X. c #584A46",
"o. c #50544E",
"O. c #575757",
"+. c #634C47",
"@. c #67554B",
"#. c #7A5845",
"$. c #695B57",
"%. c #785D55",
"&. c #6B605B",
"*. c #75635C",
"=. c #5F6163",
"-. c #6B6969",
";. c #7A6A63",
":. c #76726F",
">. c #797979",
",. c #840403",
"<. c #8C0303",
"1. c #860B06",
"2. c #920303",
"3. c #980803",
"4. c #881305",
"5. c #981604",
"6. c #8C1B16",
"7. c #841E1A",
"8. c #891D18",
"9. c #941810",
"0. c #A60603",
"q. c #B70703",
"w. c #A71603",
"e. c #B81903",
"r. c #882305",
"t. c #992504",
"y. c #912F0B",
"u. c #A92705",
"i. c #B02C03",
"p. c #B63503",
"a. c #9F2D2F",
"s. c #C40603",
"d. c #D80602",
"f. c #C61703",
"g. c #D61703",
"h. c #EA1802",
"j. c #C62903",
"k. c #D62803",
"l. c #C53903",
"z. c #D83703",
"x. c #E93002",
"c. c #B64803",
"v. c #B45003",
"b. c #844D32",
"n. c #885439",
"m. c #975737",
"M. c #9E5734",
"N. c #9E5935",
"B. c #A15632",
"V. c #A15B37",
"C. c #9A7C28",
"Z. c #8E6B34",
"A. c #A3643E",
"S. c #CA4803",
"D. c #D94702",
"F. c #C95804",
"G. c #D75A02",
"H. c #EA4603",
"J. c #F24E02",
"K. c #E65702",
"L. c #C96C03",
"P. c #D86703",
"I. c #DA7703",
"U. c #E56603",
"Y. c #E67603",
"T. c #F27703",
"R. c #855E43",
"E. c #996847",
"W. c #876554",
"Q. c #A46B46",
"!. c #AB6D45",
"~. c #AE7146",
"^. c #A4714D",
"/. c #AB714A",
"(. c #836D64",
"). c #85736B",
"_. c #8B756A",
"`. c #98776C",
"'. c #8C7B73",
"]. c #967D74",
"[. c #A67E72",
"{. c #78837B",
"}. c #9E8637",
"|. c #A38427",
" X c #A28937",
".X c #AE9133",
"XX c #B69937",
"oX c #BA9B33",
"OX c #D78B05",
"+X c #E98803",
"@X c #F48803",
"#X c #EC9603",
"$X c #F39703",
"%X c #ECAA02",
"&X c #F7AB02",
"*X c #F8B902",
"=X c #FCCA02",
"-X c #FDD702",
";X c #FEE902",
":X c #8F837E",
">X c #978378",
",X c #A5877C",
"<X c #B48B7F",
"1X c #868789",
"2X c #888889",
"3X c #9D8A82",
"4X c #979899",
"5X c #A68D82",
"6X c #AA9489",
"7X c #B6978B",
"8X c #B5998E",
"9X c #BBA297",
"0X c #A09FA1",
"qX c #A3A3A5",
"wX c #B2AFAD",
"eX c #B6B7B9",
"rX c #C89989",
"tX c #D29F8E",
"yX c #C6A899",
"uX c #D8A796",
"iX c #DDAC9B",
"pX c #E4AB97",
"aX c #E5AD99",
"sX c #E8AC98",
"dX c #E2B19D",
"fX c #CAAEA1",
"gX c #CDB1A3",
"hX c #D3B4A4",
"jX c #DCB9A8",
"kX c #DDBFB0",
"lX c #E4B9A7",
"zX c #BEC2BF",
"xX c #E7C1AF",
"cX c #F0C3AF",
"vX c #E4C4B3",
"bX c #EBC8B6",
"nX c #F5CAB5",
"mX c #F3CDBA",
"MX c #F6D1BD",
"NX c #FCD2BD",
"BX c #C2C5C7",
"VX c #D3D5D6",
"CX c #DADBDD",
"ZX c #F6D3C1",
"AX c #DFDFE1",
"SX c #EEEFEF",
/* pixels */
"q.V @ X o X . # & & > # o O G 3.@ $ 9 V 0.4.V m m D 4.p.l.z.h.0.$ : , < j , : , y w 0.H C Z i - X   X o # # 1 u.n & = : O 2 H p ",
"<.2.+ .   . O q i 5 3 $ O 1 v.Y.1.m 6 4 + # . . . + 2 7 7 S g.3.+ o > , < : : < u Z e.j.4.J C 7 1 1 1 + 3 1 t.G.2 + e $ 1 B 0 u ",
"m e.6 O . O 1 8 M M n 8 6 G Y.Y.1.5 $ % # = = o o o . .   X B H + o : , , = o : e A l.&X%XU.j.q.G S 2.u.c.j.z.S.e.3.H G 3.J 5 < ",
"1 p.t.1 O 1 7 B K J D G q.d.e.Z u < : , , : : : o .         = V 1 o : , : : . . 1 S U.-X;X@Xk.3.C n V u.#Xp.N p i F e.@XY.n $ , ",
"O r.U.G 6 7 V 4.c.F.D.H.h.1.x k s < j < , : , : : o o   * , ; u - * = : = o     2 3.J.G.F.9.F M q $ # 1 H 1.r j y 5 5.&X#Xm # : ",
"O 5.D.w.G <.q.G.%X=X&XJ.4.E x z j j < < , , , : : : = o   ..b #.#.#.| Q # o o @ C C J I I R Z r < : o # 1 2.M t 5 G e.t.l.3.1 # ",
"2 q.F 5 8 B 3.U.-X;X$X9.W ~ b j , : : : : : : , : , t { ` O.-.E.!.~.~./.R.Q d d ^ x Z E E E d y , < # o $ V 0.n 3.0.9 3 5 <.B $ ",
"H H r j u 9 m 5.&X*X9.Y ^ x k , : : # o = # o o o ! E./.{ -.{.R.N.N.M.A.!.^.^.E.R.- z b x z y a < < : : o 1 t.+Xp.i k u e n 0.n ",
"<.5 > j k u p V G.p.P E x h , : : : : = = o q d #.^.!.Q.Q 1X4X} N.B.B.N.M.M.N.^.} Q # < g < < < < , : % o @ n S.N u j j < e 3.e.",
"M $ : : < y r 7 0.C p u u > , : : : = > { E.^.^.!.Q.V.M.~ 1XeX/ N.M.B.B.B.B.N.N.Q.^.E.` ; : , g g > : : = X 1 ,.V $ s s , # 7 U.",
"B # X : : : # 2 G 5 > > < , : , , : d E./.!.Q.A.V.B.B.m.X.1XeX/ B.B.B.B.B.B.B.M.B.A.!./.' : : < < , : = o o . 6 G 6 r r $ @ m #X",
"G 7 5 # . # + 6 s.C # : : : : : < t R.!.!.N.B.B.B.B.B.n.-.1XBX^ B.B.B.B.B.B.B.M.B.V.A./.E.t : , < , # o o   . 1 ,.H C M 7 S j.+X",
"2.e.H 7 2 2 D j.@Xi.1 . # = : , , | /./.V.B.B.B.B.B.B.n.>.1XCXX.N.M.B.B.B.B.B.m.M.M.N.!./.Q : : < , = o X   o 2 D k.t.5.3.s.3.C ",
"w.=XT.s.G V V 1.L.K.S . X o # , > E.!.N.B.B.B.B.B.B.B.b.>.1XCXX.N./ ] N.B.B.b.@.! M.M.E./.! = : : : o o   X O 2 D I.=X@Xf.C p j ",
"e.+XS.F 5 + @ $ 6 q.0.6 . X # : ! /.!.B.B.B.B.B.B.B.B.} 1X1XCXX.M.^ ` n.B.N.^ vX_.b.V.A./.! X o : % o o o o O 1 V S.=XP.F p s z ",
"0.I A x > o o = $ 7 H B n B G V } !.!.B.B.B.B.B.B.B.B./ 2X1XCX$.m.*.jX+.n.m.^ ZXjX! m.A.~.Q X = # = : # o : o O n 3.J.1.N u y j ",
"d x z z < : : : : 5 7 n B <.z.Q ^.~.V.B.B.B.B.B.B.B.B.' 0X2XCX-.} @.8X9X*./ Q fX$.> ! m./.^ * o : : o : : : #   1 G d.M r y < j ",
"z z z j < : : : : q 9 2 6 3 M | ~.A.B.B.B.B.B.B.B.B.B./ 0X2XCX>.!     s gXgX>X+.    o ! E.| *   o o : : , < o   O D 0.9 > < < , ",
"z z z g < , , , , : 4 6 7 j u Q.~.N.N.B.B.B.B.B.B.B.B./ 0X2XCX1X> l *._ &.MXmXo.).8X$.'.U #.- X o o o : : , .   O ,.0.1 o , , : ",
"k j j g g < < > : # + 7 m k d !./.N.M.n.n.m.B./ b.B.M./ wX2XCX4Xb 9X6X6X&.bXmXX.4X>.9XyX{ E.^ * o o o : : ,     + i.e.1 o = : : ",
"j j j s s < < : o o O m S t d /.!.B.] _.>X`.^ U m.M.B./ AXqXCX2X2X:.VXwX:.MXbXO.VXSX).gX} ~.R.X X o o # : :   . n Y.c.+ o o = : ",
", < g g < , : = o o + D <.$ d /.~.V./ hXZXZXbX! B.B.B./ CXeXVX4X;.VXSX{.c hXgXa ( CX{.fX| /.E.*   o o o o o . 2 p.%Xc.1 . o : < ",
", , g < : : = o .   + 3.e.$ & E.!.V./ yXjXNXbX! M.B.M./ 4X4XSX0Xo.SXzX( % 8XjXc ( {.O.&.` { { * X X X o o + 2 3.w.C 5.S + o : < ",
", : : : : o o X     + c.I.2 * | ~.Q.} 8XrX_.vXQ N.M.' l BX2XAX4X..SXwXa O.'.bXX.t >XjXbXmXkX6Xv # O + 1 6 S <.J p e M 0.V + & : ",
", : : : = o o       2 P.&Xt.@ p ^.!.n._.pX5X].! B.m.@._.eXwXCX1Xo.SXzXa % 6XMX).yXZXNXNXNXNXNXkX~ L u.c.z.q.M p s s $ D z.r.8 3 ",
"< , : : = o o     + ,.x.J.h.H 5 / ^.^.^ yXrXX.+.m.b.`.`.0X1XAX1X3XeXSXo.a gXNXxXNXNXNXNXNXNXNXNX9X7.&X*Xi.8 e < , : # 8 Y.*XP.w.",
"< , : % o o .   + 6 <.2.S n n B m | /.E.;.iX,XX.b.b.`.`.0X1XCX>.vX).eX2X).MXNXNXNXNXNXNXNXNXNXNXvX> F.P.6 # : : o : + S U.L.c.e.",
": : # # o o . . 2 B n 1 @ # @ 5 7 9 n./.} ,X5X6X/ m.W.[.0X1XCX:.mXmXyX9XmXNXNXNXlXNXNXNXNXNXNXnXhX: n w.2.5 $ $ 3 9 n q.1.2 3 1 ",
"o = o o o X . 1 B m 1 # = : : $ q M p ^.Q.! 6XbX^ m.@.[.4X1XCX-.NXNXNXNXNXNXNXmXiXlXnXnXnXNXlXiX7X= $ 5 D D V m V J s.3.1 . # : ",
". o X O O + 1 n <.6 $ , , g < , e w 9 | /.m./ *.~ b.W '.1X1XCX-.NXNXNXNXNXNXMX_.gXiXaXuXuXpXaXiXX., : - 3 6 <.g.G.@XK.S 3 . : : ",
"1 + + 2 6 n m q.0.4 > g z z z g j u i ` /.V.N.m.b.E } $.'.1XCX$.NXNXNXNXNXNXNXjX$.yXdXlXlXaX8XX., : : o X O 7 w.&X;XF.V 3 = : < ",
"l.1.m B G <.p.x.D q g j z z z z j u y ^ /.N.N.V.M.] ^ u {.1XCX=.NXNXNXNXNXNXNXNXlX`.@.;.(.@.;., : : = o X . 1 V G.$Xu.M & , < j ",
"i.q.s.k.Y.*X*XD.C u j z z z z j j g g Q !.Q.B.B.B.M./ 3 >.1XVX-.NXNXNXhXNXNXNXNXNXcXpXuXuXiX7Xo o : o o o   . 7 0.x.S 9 : , j z ",
"p 0 V 3.@X;X=Xi.A k z b c j g g , : : t ^./.M.V.M.B.V.} :.1XBX'.NXNXhXb 9XNXNXNXNXNXNXcXcXvX).o o o o   X   . 1 H <.8 : < s j j ",
"u > 0 S p.&XY.J Z x z z z < < < < : o = { } ! ! W ! / } o.1XeX6XNXNX3X( {.'.hXmXNXNXNXNXNX9X@   o o o o o o o + m 7 $ : < j j < ",
"g - 5 n ,.J.3.A p h j z j y < < : : * 5 A I I I T T Y Z o.:.eX6XNXNX>XW +.0X0X` ].mXNXvX3X< o X   X = : > : : 2 n 2 # , , : , , ",
": : > 5 B d.S 9 > : , y s < < < , = Z 7.6.6.6.6.6.7.I P ..o.=.:.ZXZX8Xa.a.R o.'.ZXyX).b = : = o   X o : X . + G H 3 : : : : : : ",
"= = = e M 0.6 $ - : , , < < < < ; N 8.6.6.6.8.I I Z &.k ..O.o.z hXbXkX+.a.Y ~ kXvXb ; < : # o o   .   .   O m G.1.$ o : , , : : ",
"X . # > 0 G 2 o = : , , , < , , = I 6.6.6.6.I 5 O g b z -.>.>.o.z Q b h (.yXZXkX;.Z b b X o o o O 1 2 2 2 V l.$XL @ % : < < < : ",
".   o $ m D 1 o o # : : : , , , # I 6.6.6.6.I X.fX9X9X5Xb x d > R A p ].gXfX5XX.Z P Q kX'.'.'.t m S H 1.q.0.J 5.2.+   o : : : : ",
"6 2 1 2 H H 1   o o o : o o = : X P 6.6.6.8.A gXNXNXNXNXgX*.<X;.Z 7.I N f ( 2X) & 5 ~ lXbX*.NX>Xu.#X*XY.w.Z u M 0.2 + . o . = # ",
",.G ,.0.d.2.+       o o o         M 7.6.6.I (.MXNXnXNXNXNXMXNXNX9XA 8.P f ) O.) i Z ;.bXcX;.ZX3Xw P.-XP.P E k M z.S.K 2 1 $ o o ",
"2 n G s.h.3.O         o o o       X A 8.8.A yXZX9XxXjXnXbXNXNXNXZX^ 7.8.Z ) & ) i A : -.:.>X'.z 3 G K.l.R h y C J.I.i.3.S B 7 2 ",
"$ # 1 2 w.w.1 .         o o o o X   @ P 7.W bXyX9X).bX>XbXNXNXNXbXv A 7.A ) f ) q p r k u 2XjX;.= 7 H q.Z - e S s.m q 5 9 G g.z.",
"# o   O 7 P.r.2 1 O . . . o o o X X X . Z ^ ZX>XwX,X6XfXNXNXNXNX9XA P 0 R f f ) & d '.*.hX>XNXgX= - w 2.2.8 6 G M d j < > 5 4.@X",
"o X   . m *X*XF.5.H 7 2 + o   X X X X X R ~ vX>X:X9X;.MXNXNXNXMXhXZ 7.I M t ) c $.*.hXyXmXgXNXyX; < > 8 f.K.D.,.d z z j , & 5 v.",
"      O L #Xv.t.5.2.2.,.D 2 @ # O O @ @ I ! hXhX,X>XyXNXNXNXnXdXgXp P I Y i f ;.(.vXbXNXNXNXMX*.; , - $ L &XG.i h z z j : : $ C ",
"      1 u.i.i r e 5 2 V q.k.5.S m V V 2 I A 7XlXxX6XbXNXcXnXdXtX_.Z.Z.) d r d fXNXNXNXNXbXnXvX< , # = . 6 z.4.3 < j l < : : : 4 ",
"      2 f.N k j g > # $ n l.&X$XH.q.H 4 I I +.iXiXuXlXiXuXiXyX_ }.XX.X@.kXyX~ yXNXNXcXaXpXiXbX+.= : X   1 3.S $ , g < o = : : 5 ",
"    O S ,.e j j , , o o O C %XOXK 9 r : P 6.P @.yXdXlXyX>X5XX.}.oXXX .gXNXbX).ZXNXnXaXsXrXpXlX]., = . X 1 q.D $ : , : , : : o 1 ",
"  . 1 H 6 # j j , : o X . n H.L q < j < A 8.I _  .@.| [ _ z &  XoX.X(.NXNXmXcXNXNXaXaX7X[.aXaX>X< : = # 7 z.G # : , : < < . O n ",
"O 1 <.S $ : s j : : o   O V q.2 : < z z 9 7.Z  XoXXXXX X..j ) [ XXZ.yXNXNXNXNXNXlXaXtX%.pXaXjX'.< : : 5 t.$XL O o # : y > O 2 0.",
"m p.e.2 > < < < : = o   O V D 3 , s z z O R ! .XoXoXoX .1X=.eX:.}.[ vXZXNXNXNXNXlXsX[.<XsXaXcX_ < : e F +X*Xi.2 3 3 3 p w 7 0.h.",
"+X$XK $ : , , , : .     + S 6 > < j g , X.> U C..XoXoX|.[ O.{. .XX[ mXNXNXNXNXNXaXsXW.uXsXaXhX> > q S f.u.L J ,.,.D C J J 4.J.x.",
"-XOX1 . # : : : o       1 H 4 : , < , # <X*.5X` C.|..XoXXX X.XoXoX[ bXNXNXNXNXNXsXsX[.pXaXlX>X1 6 7 B 8 e u u r B 0.f.P.OXK.u.B ",
"$Xc.1 O & $ # # :       2 ,.3 # : : : <XpXpXpXrX_ Z.|.|.|..X.XoXoX[ vXNXNXmXnXnXsXsXuXaXpXhXx F 7 5 3 y y j g , e m w.&X&Xt.m 4 ",
"6.f.m 7 0 i i e > : # $ F 4.+ o = # X.aXaXaXpXpXuX(.' Z.C.C.|.|.|. .,XiXiX`.yXNXdXaXaXdXlX@.J M q , , s c s , : - 5 S K.p.P w e ",
"1 G q.<.G F C 0 e & 3 m L.y.1 O . o ` dXaX[.rXaXsXdXrX` d [ [  .Z.[ X.].+.l ~ jXmXlXxXhX@.T C i > < : s j , : o X @ 7 q.J E k j ",
"# 8 ,.x.U.S.2.C n C G 5.c.p.5.n 4 e > %.(.W.tXtXpXuXgX! OXy.0 $ . : , < g < : z ).>X;.d J 2.0 < < : , < < : : o . . 2 <.0 l k g ",
"# 4 S p.=X-XT.q.H m 1 1 + 6 f.H.S.i.5.N $.7X%.5XW.#.` A p.i.m @ % < < s g < , , ; o   + F 0.5 = : = , , , , o o o . 2 D e j j j ",
". 1 m 4.&X*Xi.V 8 @ . .   O S U.=X*XJ.0.5 > < k : : e M C 2.7 O o < < < < g < < : : o . 7 e.2 # . o , < < , : o   O B C e g g j ",
". O 6 G K.p.P N q : : o   . 1 p.&X$Xu.8 > g j j a j y e 9 G 7 . o : : < , : : : : = o   1 S.4.1 . o : < < : o     1 2.m # , g y ",
"  . 1 D g.F Z d t , , : o   O ,.J.5.1 > , < < s j j , > & 7 V O o : : : : : : o # : o . 2 OX%XL 1 + # & o o X . + H g.8 # : , , ",
"# . + D J p z s j < : = o   O D 0.2 . X o : : : , < , : # 2 m 1 o : : , : : : : = o o @ m #X=X@Xe.,.n 2 1 1 + 2 r.Y.D.1 . o : : "
};
