/* XPM */
static char *_d1838228d5145ab8275114d5a15551bTZTGh3sYWAdMz6aq[] = {
/* columns rows colors chars-per-pixel */
"32 32 226 2 ",
"   c #050505",
".  c #0B0505",
"X  c #07070A",
"o  c #0C0B0B",
"O  c #140505",
"+  c #1C0605",
"@  c #170807",
"#  c #150C0C",
"$  c #1B0C0C",
"%  c #0E0F10",
"&  c #120F10",
"*  c #141313",
"=  c #1B1717",
"-  c #1C1414",
";  c #1B1A1A",
":  c #230303",
">  c #2E0505",
",  c #25060B",
"<  c #230B0B",
"1  c #2C0C0B",
"2  c #340504",
"3  c #3B0404",
"4  c #3C0808",
"5  c #3C0C0C",
"6  c #3B100F",
"7  c #221313",
"8  c #271C13",
"9  c #251C1B",
"0  c #2A1C1B",
"q  c #331616",
"w  c #391815",
"e  c #2C221F",
"r  c #35211D",
"t  c #38371F",
"y  c #232323",
"u  c #2C2624",
"i  c #2B2A2A",
"p  c #382926",
"a  c #3E3837",
"s  c #430404",
"d  c #4A0404",
"f  c #430E0E",
"g  c #4D0C09",
"h  c #520404",
"j  c #5B0404",
"k  c #590A08",
"l  c #511104",
"z  c #510F10",
"x  c #421312",
"c  c #4C1313",
"v  c #461C18",
"b  c #5B1715",
"n  c #620303",
"m  c #6B0504",
"M  c #640907",
"N  c #6A0B07",
"B  c #740403",
"V  c #7C0404",
"C  c #790D07",
"Z  c #6B1306",
"A  c #68120E",
"S  c #771705",
"D  c #6B1A16",
"F  c #681B18",
"G  c #7A1C18",
"H  c #68271D",
"J  c #772D14",
"K  c #472C27",
"L  c #4C3425",
"P  c #593827",
"I  c #6C3827",
"U  c #5B471B",
"Y  c #424123",
"T  c #57453C",
"R  c #74502F",
"E  c #684832",
"W  c #754B33",
"Q  c #784932",
"!  c #7F672A",
"~  c #4C4B4D",
"^  c #5B534D",
"/  c #634C42",
"(  c #64554F",
")  c #71544B",
"_  c #7A544D",
"`  c #645852",
"'  c #6F6058",
"]  c #76645D",
"[  c #696968",
"{  c #736864",
"}  c #7D6D65",
"|  c #7B706B",
" . c #7C7A7C",
".. c #850804",
"X. c #970804",
"o. c #881808",
"O. c #941D03",
"+. c #841815",
"@. c #8B1C17",
"#. c #A30904",
"$. c #A71A02",
"%. c #AF1609",
"&. c #862603",
"*. c #962605",
"=. c #883207",
"-. c #9D3B04",
";. c #8A2814",
":. c #A52605",
">. c #AB2303",
",. c #A12B02",
"<. c #B32803",
"1. c #A73605",
"2. c #B53803",
"3. c #932B2C",
"4. c #C11803",
"5. c #E12F02",
"6. c #8D4D0F",
"7. c #AB4D04",
"8. c #B14504",
"9. c #BA4607",
"0. c #AD530C",
"q. c #B65604",
"w. c #BB5504",
"e. c #AD6C02",
"r. c #B76603",
"t. c #BF7B11",
"y. c #874B2F",
"u. c #904F2F",
"i. c #884D31",
"p. c #8D5032",
"a. c #82563A",
"s. c #8B5D3E",
"d. c #945333",
"f. c #9E5734",
"g. c #9E5834",
"h. c #965C3C",
"j. c #A15632",
"k. c #A05B37",
"l. c #A05E39",
"z. c #927233",
"x. c #A5633D",
"c. c #C35B04",
"v. c #C95D03",
"b. c #C66C03",
"n. c #D46502",
"m. c #C77A04",
"M. c #D87B03",
"N. c #EB6E03",
"B. c #895C47",
"V. c #835E54",
"C. c #9A6643",
"Z. c #9D6946",
"A. c #876A5C",
"S. c #937550",
"D. c #A56641",
"F. c #A56B45",
"G. c #A96C43",
"H. c #8A7066",
"J. c #8B736B",
"K. c #947164",
"L. c #97756B",
"P. c #987E73",
"I. c #A07E74",
"U. c #9D802B",
"Y. c #988136",
"T. c #A6862A",
"R. c #A38737",
"E. c #AE9234",
"W. c #B79832",
"Q. c #D48403",
"!. c #DD9502",
"~. c #E98C03",
"^. c #E79903",
"/. c #ECA605",
"(. c #F1A902",
"). c #F4B003",
"_. c #FACC02",
"`. c #9B815E",
"'. c #99867C",
"]. c #A4836C",
"[. c #A7887B",
"{. c #B0887A",
"}. c #B0907F",
"|. c #807F81",
" X c #7F8183",
".X c #878485",
"XX c #94908F",
"oX c #979797",
"OX c #AB9185",
"+X c #AE9588",
"@X c #AF978D",
"#X c #B29386",
"$X c #B5998B",
"%X c #BEA294",
"&X c #B7A399",
"*X c #A2A3A5",
"=X c #ABABAB",
"-X c #B7A8A0",
";X c #B2B4B3",
":X c #B6B7B9",
">X c #C79A89",
",X c #C4A596",
"<X c #CAA495",
"1X c #C4A799",
"2X c #CDAB9C",
"3X c #D5A795",
"4X c #DAB09E",
"5X c #E3AA97",
"6X c #E6AD99",
"7X c #E6B29E",
"8X c #C8AEA0",
"9X c #D1AFA1",
"0X c #D3B3A3",
"qX c #DBB3A3",
"wX c #DBBAA9",
"eX c #E3B5A2",
"rX c #EAB9A5",
"tX c #E2BDAB",
"yX c #E6C0AE",
"uX c #F1C2AE",
"iX c #EBC6B4",
"pX c #F6CBB6",
"aX c #F4CDB9",
"sX c #FCD2BC",
"dX c #C2C4C5",
"fX c #D3D6D4",
/* pixels */
"X.O . @ < $ + 8.g 4 B 2 2 Z *.4.$ = ; = w %.A g + O @ 1.> * 2 c ",
"o.l + 3 k k #.c.c * * * o X o h $ * * o f ^.(.%.n *.c.1...8.-.- ",
"Z 9.n ,.^.N.@.p y ; ; * 7 a / s.R K o 9 V 9.;.c - @ B 0 f c.q.# ",
"..x 5 1._.0.K u * * % P F.' ] h.x.x.C.E c K p e = # 2 7.O.9 k m ",
"k ; 0 f 1.v e * 0 a.Z.G.k.{ .Xj.j.j.l.D.s.e ; ; ; * o &.6 y - 1.",
"d # & : ..* * 9 F.D.j.j.f. .XXf.j.j.j.j.G.a.* * ; o o : m f 2 n.",
"b.1.h ..n.4 % I G.j.j.j.h.|.*Xu.i.j.V.a.x.h.% * * o X + 1.Q.#.b ",
"9.J $ # M V 1 B.l.j.j.j.d..X*XQ @Xp.OX[.d.s.X o * % o @ *.M.c y ",
"p i = * - 3 P G.f.j.j.j.u.oX;XK Y $X'.e L B.X   o * * . d X.= ; ",
"i y ; ; * > R x.d.y.u.d.u.*X:X{ XX$X,X=X&XW L   o * =   S ..* * ",
"; y ; * o d R x.K.yX[.f.u.dX;XXXfX'.@X=X-Xs.W   X o % O b.=.o * ",
"* ; * o   o.E G.A.,X%Xg.Q *XdX;XoX` %X` %X,XJ.. O @ 4 B A ..2 * ",
"; * & X . 2.w.B.s.>X' d.K.*X:X*X:X} yXpXsXsXsXK.>.Q.>.q ; 5 M.=.",
"* * o . 3 m 4 w Z.L.#XQ L.XX=XwX&XwXsXpXsXsXsX#X1 8.g $ $ B 7.&.",
"o o O : j $ ; ; I h.[.) H..X=XaXsXsXyX4XrXrXeX] ; $ h X.w.<.< & ",
"S 4 n <.m ; i y e Z.g.i./ .X*XaXsXsXsX+X#X#XJ.* * & o n ).=.$ ; ",
"o.%.(.^.v i i y ; F.f.f.Q  XoXsX0XyXsXsXrXeXH.o % o   : $.5 = y ",
"= f n.1.r i y ; % I I I I [ oXsXJ.'.8XwXsX2X= X . % * $ s & ; ; ",
"& 7 X.4 * = ; ; D @.@.+.H ~ ^ iXOX3.| wX] # % % X o . &.M & = * ",
". # j @ % = ; c @.@.F ( ` ~ ~ T ( %X8X) ' T p > s n ..w.N % ; * ",
"n m X.O o o o 6 @.@.I.sXsX1X%X_ D t [ 8 }.,X0Xh v.(.D q <.s @ o ",
"> V 4.O   X o X F G qX9XyXaXsX1XG L t v ^ } '.o d 2.w f w.S j $.",
"o . e.r.B : . o # x 0X.X%XsXsX+XA v Y e ] OXaX* = k 1.O.r y - 7.",
"  . q.=.Z B X.k , F 9XOX0XsXuX+XH b / %XpXsX8X* = # r.=.y u * 1 ",
"  3 C u ; # S ^.o.G '.4X7X7X+XR.S.,XP.sXrX6X1X9 * X V d ; = % $ ",
"O m $ y * X > :.= D H `.].T U W.$XsXtXuX3X>X2X; ; $ w.j & ; & j ",
"b.Z - ; & X d f ; c z.W.E.[  XY.yXsXsXrX{.6X,Xo - C m.o.k z M 5.",
"^.O $ & X   n $ * A.V.T.W.Y.Y.T.uXsXsX6X>X7XP.n 2 5 e 9 M n.M.Z ",
"o...k 6 - < -.@ K.5X5XI.! T.T.U.<X0XyX7X6X<Xt.A = ; y & + ,.+.0 ",
": >./.2.j m &.>.A.[.>X5X{.I 6.U T e ( ,X+Xp ..1 * ; = o X n 0 y ",
"O n ~.S < o . 1.(._ ` T i q m > * ; ; * * o *.l o = = o @ m ; e ",
". h +.r ; * X j <.@ * ; ; = < s % * * * o . e.!.C 1 + + 6.*.o * "
};
