/* XPM */
static char *_c32028722e0496cb74c8771d9bb9a67C5oq53xIIMXLgKYH[] = {
/* columns rows colors chars-per-pixel */
"64 64 256 2 ",
"   c #040302",
".  c #0B0302",
"X  c #020903",
"o  c #0B0803",
"O  c #04040A",
"+  c #0C030A",
"@  c #060A0B",
"#  c #140201",
"$  c #1B0201",
"%  c #140901",
"&  c #1C0902",
"*  c #14020A",
"=  c #1C030A",
"-  c #1C0B09",
";  c #050410",
":  c #1A0211",
">  c #191B19",
",  c #230301",
"<  c #2C0301",
"1  c #230901",
"2  c #2C0A02",
"3  c #23030A",
"4  c #2A090A",
"5  c #26050B",
"6  c #330401",
"7  c #3B0602",
"8  c #330902",
"9  c #3B0903",
"0  c #36090A",
"q  c #24160A",
"w  c #371308",
"e  c #3B0917",
"r  c #271714",
"t  c #391B16",
"y  c #2E0211",
"u  c #3C2509",
"i  c #2C201A",
"p  c #3C241D",
"a  c #39271A",
"s  c #3F1F23",
"d  c #3A1D2F",
"f  c #291723",
"g  c #3D2424",
"h  c #3D232B",
"j  c #3B2A2A",
"k  c #392826",
"l  c #3D3329",
"z  c #372B2D",
"x  c #430601",
"c  c #4B0501",
"v  c #440902",
"b  c #4C0A02",
"n  c #4B0C09",
"m  c #460B0B",
"M  c #520702",
"N  c #540B02",
"B  c #5B0C01",
"V  c #560705",
"C  c #471806",
"Z  c #5D1202",
"A  c #54130A",
"S  c #591308",
"D  c #411D1C",
"F  c #481D16",
"G  c #581917",
"H  c #630E02",
"J  c #6B0E02",
"K  c #600C0A",
"L  c #710D01",
"P  c #7B0C06",
"I  c #631102",
"U  c #6B1101",
"Y  c #661509",
"T  c #731301",
"R  c #7B1501",
"E  c #751A02",
"W  c #7C1902",
"Q  c #79170A",
"!  c #681815",
"~  c #47280A",
"^  c #572307",
"/  c #4C2914",
"(  c #44241C",
")  c #4B241D",
"_  c #412A1C",
"`  c #4C2B1C",
"'  c #452614",
"]  c #532B1D",
"[  c #582818",
"{  c #473219",
"}  c #57341A",
"|  c #5D320F",
" . c #652808",
".. c #6E3A0A",
"X. c #642918",
"o. c #7D2917",
"O. c #68351B",
"+. c #77371A",
"@. c #762803",
"#. c #491E24",
"$. c #432424",
"%. c #4B2423",
"&. c #432A23",
"*. c #4B2C23",
"=. c #432C2B",
"-. c #4A2C2C",
";. c #4A252D",
":. c #532624",
">. c #542C22",
",. c #5B2C24",
"<. c #532C2B",
"1. c #5C2D2B",
"2. c #592326",
"3. c #4B3223",
"4. c #493329",
"5. c #543325",
"6. c #5B3323",
"7. c #55332C",
"8. c #5C342A",
"9. c #593927",
"0. c #482D35",
"q. c #552B31",
"w. c #4A3132",
"e. c #45343A",
"r. c #583635",
"t. c #662C27",
"y. c #6B3B24",
"u. c #643429",
"i. c #6A342B",
"p. c #673827",
"a. c #783926",
"s. c #683A34",
"d. c #753835",
"f. c #762B26",
"g. c #5E4503",
"h. c #694908",
"j. c #775604",
"k. c #76441A",
"l. c #744B12",
"z. c #7B4124",
"x. c #784925",
"c. c #6D4438",
"v. c #774638",
"b. c #664222",
"n. c #613743",
"m. c #820E00",
"M. c #821601",
"N. c #841A02",
"B. c #8B1C02",
"V. c #86190A",
"C. c #931D01",
"Z. c #9B1C02",
"A. c #941B09",
"S. c #831611",
"D. c #A41E00",
"F. c #8E2503",
"G. c #942103",
"H. c #9C2403",
"J. c #962605",
"K. c #843A16",
"L. c #8A3512",
"P. c #A32601",
"I. c #A62901",
"U. c #AB2B02",
"Y. c #AB2605",
"T. c #B22D01",
"R. c #B92B07",
"E. c #A73405",
"W. c #B43203",
"Q. c #BB3202",
"!. c #B93209",
"~. c #823A31",
"^. c #CC2C04",
"/. c #C43401",
"(. c #CA3404",
"). c #CC3B05",
"_. c #D93E03",
"`. c #D73903",
"'. c #E03602",
"]. c #885C09",
"[. c #83431B",
"{. c #924E12",
"}. c #A75704",
"|. c #A75B1B",
" X c #B45913",
".X c #B44C0B",
"XX c #9C7807",
"oX c #956917",
"OX c #9C6A13",
"+X c #BC6708",
"@X c #A67309",
"#X c #BC7D16",
"$X c #AD6F13",
"%X c #834423",
"&X c #8A4629",
"*X c #944728",
"=X c #875624",
"-X c #955626",
";X c #864533",
":X c #924732",
">X c #995435",
",X c #87553C",
"<X c #A85429",
"1X c #AC532F",
"2X c #916F38",
"3X c #B96727",
"4X c #AF6E35",
"5X c #D84406",
"6X c #C84A13",
"7X c #D35610",
"8X c #E74703",
"9X c #F44902",
"0X c #E75307",
"qX c #F25302",
"wX c #FA5607",
"eX c #EA5211",
"rX c #D26416",
"tX c #CE690B",
"yX c #FD6305",
"uX c #E97609",
"iX c #F87F07",
"pX c #E7761A",
"aX c #EC690E",
"sX c #D26C28",
"dX c #EA722F",
"fX c #DB5328",
"gX c #A16E41",
"hX c #8C5F42",
"jX c #B6850A",
"kX c #CC8414",
"lX c #D88908",
"zX c #F68504",
"xX c #FF9806",
"cX c #FA8815",
"vX c #F78D13",
"bX c #D08527",
"nX c #F7892A",
"mX c #F98534",
"MX c #F49532",
"NX c #F3AD35",
"BX c #D4864B",
"VX c #FB9446",
"CX c #EE944E",
"ZX c #F6AD4E",
"AX c #FF9065",
"SX c #F1AA69",
"DX c #FCB966",
"FX c #F4BB76",
"GX c #CEA664",
"HX c #F5C669",
"JX c #FFCA77",
"KX c #F3D773",
"LX c #F8E37E",
"PX c #FAE56E",
"IX c #F6D08D",
"UX c #FCF197",
/* pixels */
"                  . . . . o o   + # # $ # $ & # = $ , = . o   + # . % * # # # # # $ $ $ $ $ $ , $ $ , $ $ $ $ $ $ # # # # # . # ",
"                . . . . . . .   . # # # # # $ # # , $ $ # * . . . # # # # $ # # # # = $ $ $ , $ , $ $ $ $ $ # $ $ $ $ # $ # # # ",
"                . . . . . . . . . . # . # * # , # - $ & * + . - . $ % $ $ # # 5 & # 3 $ $ $ , $ $ , , $ , $ $ $ $ $ # # # # # . ",
"              . . . . . . . . . . . . # % . # u # : # $ = . . . # # # $ $ $ $ $ ~ $ = & $ , 3 $ , $ , , $ $ $ $ $ $ $ # $ # # # ",
"              . . # . # . . . . . . . * #   # h.& : & & * . . . # # = $ # $ 3 # h., , & $ , , $ , , , , $ , $ , $ $ $ $ # $ # # ",
"            . . # # # . # . . # .   . # . o # oXg.3 . . * # * # , $ $ $ $ $ & 1 OX< , 1 , , 3 , < , , , , , $ , , $ $ $ $ # # # ",
"            . . # # # # # . # # # o . * # o & @Xj.= & # . 1 ' O.| C , $ , $ # , jX6 , , 5 < 5 , , < , , , & , , $ , , $ $ # $ # ",
"            . . # & # # # # # . # . % * # o & @Xj.= # # 2 k.2X-X=XgXx.8 , $ & t jX6 , , < < 5 , < , < , , , , $ , $ $ $ $ $ # $ ",
"          . .   # % # # # # # # # % * . # $ * =X].# : c ..3XbXZXSXmX3X..x 1 , / $X< 5 < 8 6 , < < < , 4 < , < , , , $ $ $ $ $ $ ",
"              . % $ $ # $ $ # # # # $ # & $ . ..oX7 C l.2XVXHXdXuXHXSX3Xl.^ 2 ].$X$ < 6 < < < < < < < < , , , , , $ , $ $ $ $ $ ",
"            . . # # # $ $ $ & $ # # : # # # & OX@Xl.2X1XxXFXVX+X}.MXJXxXfX2Xl.].#X2 0 8 8 6 < < < < < < < < , , , , , $ $ $ $ $ ",
"          .     . . # # # & $ $ = # $ # & # . l.kX2XCXDXIXZX0XOXh.tXnXIXFXAX4XjX#X, < 6 < 6 8 6 < 6 < < < < < < , , , , $ $ $ $ ",
"                  . . # # # & $ # $ 3 * # . & OXbX$XSXIXJXaX^.oXj.7X0XDXUXSX4X#XkX< 6 6 6 7 8 6 6 6 6 < < < < < , , , , $ $ $ $ ",
"                      . # # # $ $ & , $ # # # |.xX~ N }.FXIXMX}.h.iXJXKXrXP v lXkX9 7 x 6 7 6 6 6 6 6 6 < < < < < < , , $ $ $ , ",
"                      . # # $ , = $ , $ = # $ }.zXL.& o .XHXSXuX+XVXIXpXy 8  .iX+X6 x 6 9 7 9 9 9 6 8 6 < 6 6 < < < , , , $ & $ ",
"                      . # $ $ , = , , $ # * $ }.sX X* # 7 tXFXZXCXJXsXE 0 e {.dX+X7 m x 9 7 9 0 9 6 7 6 6 6 6 < < < , , $ , , $ ",
"                      . # & , , < 3 $ $ $ # < *X>X*Xf . , x E.BXBX XV x v e %X>X<Xb v c b 7 7 c 9 7 7 9 7 6 6 < 6 < < , , , , $ ",
"            o         . # $ , < < 3 3 , $ = < [.<X:Xt.@ + = $ # $ , 5 e 6 [ ;X<X*Xb m c N x 7 x 7 7 7 9 6 6 6 6 6 < < , , , , , ",
"                  o .   . # , < < 5 5 , $ = , [ y.s.u.4 # & 4 $ $ 9 2 6 Z 7.u.c.a.b n b b x x v v 7 7 7 9 9 6 6 6 6 < , , , , $ ",
"        .   .   .       # $ , 6 2 < < < $ = $ ' c.7.w.t 4 # , 4 5 < 1 A A &.w.8.X.b b M b b 7 m v v v 7 7 9 9 7 6 < < < < , , , ",
"          .     .     o . $ < 4 8 6 < 2 , , = p &X[ ' g p w $ 2 r < C :.F { %.*X>.n N b N b b m b v v v 7 7 7 9 6 6 < < < , , , ",
"        .   . .     . . . $ , < 8 6 < , , $ = i a.K.&.7.p.O.K.b.O.L.+.i.8.3.[ :X:.n N N b N b b b b v v v v 7 9 9 6 < < < , , < ",
"  .   . .     .   .   o . & , 8 < 6 < $ $ $ $ r s.-X<.s.v.a. Xl.b..X*X,Xu.7.=Xd.:.b N V n c M N b b b b v v v 7 6 6 < < < , , , ",
"    .     .   . .     . . $ < < < 6 < # = , $ r c.+.1X;X>XrXpXsX3XiX7X<X:X:X&Xa.:.N B A n N N V N b b b v v v 7 7 6 6 < < < , < ",
".   .   . o     . o     # 4 < < 6 6 < < , $ # r p.<.i.sXrXzXbX%X&X+XvXpX1X%X*.p.G A N N N N N B N N b b b x x 8 6 6 < < < < < < ",
"  +   . .         . . # , 8 7 7 7 6 < < , $ $ - r.S z ` =Xx.F c.c.;.9.oXy.#.#.9.G S N B N N N H B N N N b b v 7 6 < < < 6 < < < ",
"      .   . o o . . # , 8 v x x 7 6 6 < , $ $ 3 p e.-.O.w.1.$.=.r.a 7.>.s.9.0.k G Z B B N N N B B B N V N c x 7 6 6 < < 6 < < , ",
". .           . o . # 4 v b c x x x 6 < , $ $ - O.t 3./ 1.~.7.b.d.6.y.u.q.u ~ s.Y Z H B N N N N B B N N N b x 7 6 6 6 < < < < < ",
"    .   .   . . o   $ 0 m c c b c x 6 6 < , & , f.[.=.7.3.C t.t.O.>.,.t 1.3.a.~.Y I I B B N N B I B B B N b v 7 7 6 6 6 6 6 < < ",
"  .     . . . . . # , 9 N N N V M b 7 6 < , , , p p.X.d.g v.O.t.*X_ ;Xd d...0.[ Y I Z B H B H Z I B N B B b b 7 6 6 < < 6 < < , ",
"O     .   . . o # $ < v N B B V V N x 6 < , , , r %.s.u.*.a.' K..Xh K.l :.%X0.G H H B H H H H I I B B B B N b 7 7 7 < 6 < 6 < < ",
". o .   . . . # , < 9 b N H H V N N x 6 < < , $ a ' =.t.3.-.w.&.;.3.>.$.i.k [ ) J I H B H H J I I I B B B N b x 7 6 6 6 6 6 < , ",
".   o . . + . $ , 6 x N B B J B J V c 7 7 < < $ ` t z w.-.$.7.-.{ *.<.%.4.j %.f.T U J B J I I J I H H H B B b v 7 7 7 6 < < < 6 ",
"+     . o . . $ 6 7 b N B J H J H N N x 7 6 < , 6.` t ` 6.} *.( q.0.r.] >._ / X.W U H H J U U J I B H H Z B b b x 7 6 6 6 < < 6 ",
".     . . . . $ 9 v N N J I J U J H B c 7 7 < , ^ y.X.O.O.[ ` 7.1.>.>.[ +.y.f.+.W T J H J U U I I I H H H N N x v 7 7 9 6 < 6 < ",
".   o . . . . < b N Z J J U T J L U K V M 7 < $ 3 w.7.u.+.&X*X*X|.K.&Xk.,.<.,.X.W T J J H U I U I J I V B N b x v 7 7 9 8 6 6 8 ",
".   . .     $ 9 N I U U L T T Q T L T H V x 6 , $ w $.g *.1.p.X.y.p.1.;.' ' A N.N.W U J J U I I B H I H B N b b v v 7 9 6 6 6 < ",
"    . . .   $ m I U T T R R M.W R R R J H b 7 $ # - =.k j g &.` } s $.&.z j [ V.N.W T U T U U H H I H B B N b v b v v 7 7 6 8 6 ",
".   . +     , n U T R W N.B.B.B.M.M.R P J A 9 $ 1 < 6.` -.=.j k k =.=.7.6.] K C.B.W R T T T I H H B I Z N b b b b v v 7 9 6 6 6 ",
".   . + o o , n T T R N.N.A.B.B.B.N.M.R T V 6 $ $ w ;X+.+.p.] 7.u.<.] a.%Xa. .E N.N.W E W T U B H H B B Z N N b b b v v 9 9 6 6 ",
". o . o o   < N U W B.B.C.G.H.C.F.D.Z.V.T K y , 1 D #.O.{.<Xo.z.&Xz.k. XK.w.A W G.B.W R W R U J H B H B Z B N N b b b v 7 9 9 8 ",
".   . .   . 8 I W V.G.G.H.H.P.P.H.D.D.B.R H < , 2 m 2.%.w.~.+.=X<X.Xs.*.p.#.! S.F.N.W W R R T J H H I B B B N N b N b v 7 9 9 6 ",
".   . . . o 8 Y N.J.H.P.I.U.U.T.Y.T.P.P.C.U 6 < V F  .y.6.} -.*.i %.q.8...y.[ M.B.B.N.W W T U U I J I I I B B N N N b v x 9 9 6 ",
"  . + . . # 9 E F.H.P.I.U.U.W.Q.!.Q.U.Y.D.T 6 x P [ z a.+.{ ~.+.s.z.$.a.[.f G Z.C.B.B.N.W E E U I J J J I I B N N b b v x 9 9 6 ",
". + . . . # 7 T G.H.U.I.T.W.Q./.(.(.Q.R.R.B.c N V.G f.u *.i.8.|. Xv.] 9.$.F X.H.H.G.B.N.N.W T U J U J I I J H H N N b x v 9 7 9 ",
". . . . . # v T J.H.P.U.T.W.Q./.`.).(.^.^.D.J V I W i.2.s.<.&.z D *.=.s.>.s.o.E.P.C.C.B.B.M.T U I U U U I J I B N N c x 7 9 9 7 ",
". o . . . # v E G.H.P.I.U.U.T./.`.8X_._.`.(.N.H J 2.r.r.d.8.5.u.;X) y.s.n.6.X.(.I.H.C.A.B.N.T U U U U U J U I I B N c x 7 9 6 9 ",
".     . . * v W B.J.P.I.U.U.T./.5X8X8X8X8X'.A.H S./ { [ p h O.<X|.x.D t / 6.<.U.U.I.H.H.G.N.R T U U U I I I J J B M c 7 7 9 9 6 ",
"O   + . # m E W V.G.U.W.Q.Y.Y.!.8XeX8X9XfX9X/.c Y :.` >.,XX.;.> q h >.>Xt.<.$.!.T.U.P.H.C.B.R Q T I U T Y Y J Z N N M x 7 9 7 7 ",
".   * . . Z J.J.W C.U.(.(.Q.P.H.5X'.qXwX9X9XP.M m.1._ D ' ` %.3.] q.>.u i $.7.Q.T.U.P.P.H.C.N.T L U U T J J J J N N b x 7 7 9 6 ",
". X # . , J.Y.B.V.C.!.).).T.C.B.!.`.5X9XwX9XU b B.G -.<.<.3.<.v.&X&.w.>.r._ a Q.R.T.U.U.P.H.B.T E U U T J L J H B B b c x 7 0 7 ",
"o O # + w E.Y.M.B.C.Y.!.W.P.B.C.P.^./.`.wX^.c V T.f.r.1.] _ D F / a t 6.>.i.%.6X/.Q.Q.T.U.H.B.M.E T T U I I I H B N N b c 7 7 6 ",
"  O   O A P.C.N.G.P.T.Y.H.A.Z.T.T.(.).9XwX_.P M._.a.3.p.,.5.7.9.O.9.r._ 9.[ 1.).^./.Q.Q.W.P.C.N.F.R P U I Z I H J N b n x x 7 0 ",
". *   % Y M.N.A.H.W.W.A.m.A.!._./.!.eXyXwXyX`./.wXo.k 7.7.) 7.} a.9.h r.4.;.$.8X`.)./.Q.U.P.G.B.B.A.S.J J Z I Q I N v 8 6 < < 4 ",
". $ &  .H.N.m.B.H.P.Y.Z.Z.T._.9X5X5XwXvXiXvXyXaXcXa.7._ w.$.8._ 9.5.#.$.k w.&.aXqX8X).Q.U.Y.C.N.B.V.S n H J I Q I v , $ # # # # ",
"X $ C 6X).B.m.@.C.P.!.).5X0XqXwXyXaXyXZXZXNXnXMXNXy.( / g =.#.j z a *.' g &.g wXyX0X).Q.T.Y.H.B.N.I 2 & n H N I Z 6 .   O     o ",
"  / ;X:X! 6 , < 6 I E.6XfX7X7XaXnXnXCXLXUXLXPXPXKXb.*.$.$.k =.t w.=.a a D =.[ sXmX.XG.L.V.M.T Q 6 =   $ b H B S 0 $     O       ",
"@ . . . o O . . ; . $ < , , 6 n u n Z +.-X4XGXKXGX} <.D r.w *.*.>.) ` 5.%.-./ +.=XC , # # $ # # $ .   . w x v m 4 .   O       X ",
"O +     @ ; + * +   . o @ + . $ . # < 0 m b N B -.r.c.,.p.6.8.%.t.] 5.u.9.r.s.[ , .   O . .   O         - $ # = .               ",
"      o         . . .       o . & % # , < 0 9 7 t %.D 5.} 6.*.s.a.9.7.,.` ` <.- . . O O   . . o   X O   o                       ",
"X X         X X   o           o # + * $ $   . # $ p w.-.g $.&.&.( k z g k p &.> + O                           O   O O           ",
"    +               . . . . .   .     . . O O # . . . . + + %   . .     % . . O         + +           o       O           O     ",
"O O     O O         O       O O o       . o X   . . . +       O O o     O     @   X           X                                 ",
"              O     O               O O     O . + . .     @     ; .   @ O               O O @   O O X X   +             O     O "
};
